<?xml version="1.0" encoding="utf-8"?>
<!-- Generator: Adobe Illustrator 25.2.3, SVG Export Plug-In . SVG Version: 6.00 Build 0)  -->
<svg version="1.1" id="Layer_1" xmlns="http://www.w3.org/2000/svg" xmlns:xlink="http://www.w3.org/1999/xlink" x="0px" y="0px"
	 viewBox="0 0 519.9 519.9" style="enable-background:new 0 0 519.9 519.9;" xml:space="preserve">
<style type="text/css">
	.st0{fill:#FFFFFF;}
	.st1{display:none;fill:none;stroke:#FF0000;stroke-miterlimit:10;}
	.st2{fill:#08274D;}
	.st3{fill:#1F5DA7;}
	.st4{fill:url(#SVGID_1_);}
	.st5{fill:url(#SVGID_2_);}
	.st6{fill:url(#SVGID_3_);}
</style>
<rect x="0.5" y="0.5" class="st0" width="518.9" height="518.9"/>
<circle class="st1" cx="259.9" cy="259.9" r="259.4"/>
<g>
	<path class="st2" d="M57.8,330.1c0-5,0.2-13.1,0.3-17.7h-0.3c-1.1,8-2.3,18-3.7,27.2H43.1c-1.3-10.7-2.1-17.7-3.2-27h-0.4
		c0.3,4.3,0.5,11.1,0.5,17.4v9.7H27.4v-36.9h20.1c0.4,4.2,1.3,13.8,1.7,18.9h0.4c1-7.4,1.4-12.8,2.3-18.9h19.7v36.9H57.8V330.1z"/>
	<path class="st2" d="M89.8,333.9l-1.2,5.8h-14l10.2-36.9H104l10.5,36.9H99.5l-1.2-5.8L89.8,333.9z M96.3,324.2
		c-0.5-2.9-1.5-8.5-2.2-12.4h-0.3c-0.7,4.4-1.5,8.9-2.2,12.4H96.3z"/>
	<path class="st2" d="M131.3,326.6v13h-14v-36.9h21c9.5,0,13.3,4.9,13.3,10.3c0.1,4-2.4,7.6-6.2,8.8c3.7,1.1,5.6,4.8,5.6,10.3v0.9
		c0,2.2,0.1,4.5,0.4,6.7h-13.9c-0.6-1.5-0.7-4.1-0.7-7.5v-1.8c0-2.1-0.5-3.7-3.3-3.7L131.3,326.6z M131.3,317.8h2.4
		c2.7,0,3.6-1.4,3.6-3.2c0-1.9-1.1-3.1-3.7-3.1h-2.4L131.3,317.8z"/>
	<path class="st2" d="M170.4,302.8v36.9h-14.6v-36.9H170.4z"/>
	<path class="st2" d="M176.2,339.6v-36.9h16.8c2.8,8.5,4.3,14.3,5.7,19.8h0.3c-0.4-4.2-0.6-10.6-0.6-16.2v-3.6h13.4v36.9h-16.1
		c-1.9-6-4.6-14.9-6.3-20.8h-0.2c0.5,4.3,0.4,10.1,0.4,16.4v4.4L176.2,339.6z"/>
	<path class="st2" d="M246.8,326h-15.3v4H249l-1.5,9.7h-29.8v-36.9h29.8v9.7h-16v3.7h15.3V326z"/>
	<path class="st2" d="M291.8,326h-15.3v4H294l-1.5,9.7h-29.8v-36.9h29.8v9.7h-16v3.7h15.3V326z"/>
	<path class="st2" d="M297.7,339.6v-36.9h16.8c2.8,8.5,4.3,14.3,5.7,19.8h0.3c-0.4-4.2-0.6-10.6-0.6-16.2v-3.6h13.4v36.9h-16.1
		c-1.9-6-4.6-14.9-6.3-20.8h-0.2c0.5,4.3,0.4,10.1,0.4,16.4v4.4L297.7,339.6z"/>
	<path class="st2" d="M368.3,326h-15.3v4h17.5l-1.5,9.7h-29.8v-36.9h29.8v9.7h-16v3.7h15.3V326z"/>
	<path class="st2" d="M388.1,326.6v13h-14v-36.9h21c9.5,0,13.3,4.9,13.3,10.3c0.1,4-2.4,7.6-6.2,8.8c3.7,1.1,5.6,4.8,5.6,10.3v0.9
		c0,2.2,0.1,4.5,0.4,6.7h-14c-0.6-1.5-0.7-4.1-0.7-7.5v-1.8c0-2.1-0.5-3.7-3.3-3.7L388.1,326.6z M388.1,317.8h2.4
		c2.7,0,3.6-1.4,3.6-3.2c0-1.9-1.1-3.1-3.7-3.1h-2.4L388.1,317.8z"/>
	<path class="st2" d="M449.1,339.6h-8.8c-0.3-1.1-0.6-2.3-0.7-3.4c-1.9,2.7-5.3,4.4-10.9,4.4c-12.2,0-17.1-9.3-17.1-19.1
		c0-11.7,6.6-19.7,19.7-19.7c13.6,0,17.7,7.9,18,12.6h-14.2c-0.3-1.7-1.1-3.4-3.7-3.4c-3.9,0-4.8,4.6-4.8,10.2
		c0,5.4,0.8,10.3,4.7,10.3c3.5,0,4.2-2.9,4.2-5v-0.1h-5.2v-8.4h19V339.6z"/>
	<path class="st2" d="M462,339.6v-12.5c0-0.6-0.1-1.2-0.5-1.7l-12.4-22.7h16.4c1.6,4.7,3,9,4.4,13.3c1.3-4.1,3.3-9.4,4.6-13.3h15.1
		l-12.6,22.8c-0.3,0.5-0.4,1.1-0.4,1.7v12.4L462,339.6z"/>
</g>
<g>
	<path class="st3" d="M34.5,361.7h-4.4v6.9h5l-0.3,2.5h-7.3v-19.9h7.2v2.5h-4.6v5.7h4.4V361.7z"/>
	<path class="st3" d="M36.6,371v-19.9h3.1c0.9,3.2,3.4,13.3,3.7,14.6h0c-0.1-2.5-0.1-5.3-0.1-8.6v-6h2.4V371h-3
		c-0.8-3-3.5-13.9-3.8-15h0c0.1,2.4,0.2,5.3,0.2,8.9v6.1H36.6z"/>
	<path class="st3" d="M50.7,371l-3.4-19.9h2.8l1.2,8.5c0.4,2.7,0.9,5.8,1,8h0.1c0.2-2.1,0.7-5.2,1-7.9l1.1-8.5h2.8L54,371L50.7,371z
		"/>
	<path class="st3" d="M61.5,351.1V371h-2.6v-19.9H61.5z"/>
	<path class="st3" d="M66.9,361.9v9.1h-2.6v-19.9h3.9c3,0,4.6,1.2,4.6,4.7v0.8c0,2.9-1.1,3.8-2,4.2c1.2,0.5,1.8,1.4,1.8,4.1
		c-0.1,2,0,4.1,0.2,6.1h-2.5c-0.2-2-0.3-4-0.2-5.9c0-2.5-0.3-3.1-2.2-3.1L66.9,361.9z M66.9,359.7h0.9c1.7,0,2.3-0.8,2.3-3V356
		c0-1.7-0.4-2.7-2.2-2.7h-1V359.7z"/>
	<path class="st3" d="M83.8,356.2v9.6c0,3.7-1.5,5.5-4.7,5.5c-3.1,0-4.4-1.9-4.4-5.4v-9.7c0-3.6,1.7-5.4,4.6-5.4
		C82.2,350.8,83.8,352.7,83.8,356.2z M77.4,356v10.2c0,1.9,0.7,2.7,1.9,2.7c1.3,0,1.9-0.8,1.9-2.8V356c0-1.8-0.6-2.7-1.9-2.7
		C78,353.2,77.4,354.1,77.4,356z"/>
	<path class="st3" d="M86.2,371v-19.9h3.1c0.9,3.2,3.4,13.3,3.7,14.6h0c-0.1-2.5-0.1-5.3-0.1-8.6v-6h2.4V371h-3
		c-0.8-3-3.5-13.9-3.8-15h0c0.1,2.4,0.2,5.3,0.2,8.9v6.1H86.2z"/>
	<path class="st3" d="M107.9,363.2c0-3.5,0-7.6,0.1-9.8h0c-0.5,3.4-1.7,11.8-2.7,17.6h-2.5c-0.7-5.2-2-14-2.4-17.6h-0.1
		c0.1,2.3,0.2,6.8,0.2,10.2v7.4H98v-19.9h3.9c0.9,5.4,1.9,11.8,2.2,14.5h0c0.3-2.7,1.6-9.4,2.5-14.5h3.8V371h-2.5V363.2z"/>
	<path class="st3" d="M120.1,361.7h-4.4v6.9h5l-0.3,2.5h-7.3v-19.9h7.2v2.5h-4.6v5.7h4.4V361.7z"/>
	<path class="st3" d="M122.3,371v-19.9h3.1c0.9,3.2,3.4,13.3,3.7,14.6h0c-0.1-2.5-0.1-5.3-0.1-8.6v-6h2.4V371h-3
		c-0.8-3-3.5-13.9-3.8-15h0c0.1,2.4,0.2,5.3,0.2,8.9v6.1H122.3z"/>
	<path class="st3" d="M136,353.6h-3.2v-2.5h9v2.5h-3.2V371H136V353.6z"/>
	<path class="st3" d="M144.5,365.2l-0.8,5.8H141l3.2-19.9h3.7l3.3,19.9h-2.8l-0.9-5.8H144.5z M147.3,362.8c-0.5-3.8-1-7.1-1.2-9.2
		H146c-0.1,1.6-0.7,6-1.2,9.2H147.3z"/>
	<path class="st3" d="M152.8,351.1h2.6v17.5h4.9l-0.2,2.4h-7.3L152.8,351.1z"/>
	<path class="st3" d="M167.3,353.6h-3.2v-2.5h9v2.5H170V371h-2.6V353.6z"/>
	<path class="st3" d="M183.2,356.2v9.6c0,3.7-1.5,5.5-4.7,5.5c-3.1,0-4.4-1.9-4.4-5.4v-9.7c0-3.6,1.7-5.4,4.6-5.4
		C181.6,350.8,183.2,352.7,183.2,356.2z M176.7,356v10.2c0,1.9,0.7,2.7,1.9,2.7c1.3,0,1.9-0.8,1.9-2.8V356c0-1.8-0.6-2.7-1.9-2.7
		C177.4,353.2,176.7,354.1,176.7,356L176.7,356z"/>
	<path class="st3" d="M194.3,356.2v9.6c0,3.7-1.5,5.5-4.7,5.5c-3.1,0-4.4-1.9-4.4-5.4v-9.7c0-3.6,1.7-5.4,4.6-5.4
		C192.7,350.8,194.3,352.7,194.3,356.2z M187.8,356v10.2c0,1.9,0.7,2.7,1.9,2.7c1.3,0,1.9-0.8,1.9-2.8V356c0-1.8-0.6-2.7-1.9-2.7
		C188.5,353.2,187.8,354.1,187.8,356L187.8,356z"/>
	<path class="st3" d="M196.6,351.1h2.6v17.5h4.9L204,371h-7.3V351.1z"/>
	<path class="st3" d="M205.5,351.1h2.6v9.3h0c0.8-1.9,2.6-6.4,3.8-9.3h2.9l-3.6,7.8l3.9,12.1h-2.9l-2.8-9.3l-1.3,2.7v6.6h-2.6V351.1
		z"/>
	<path class="st3" d="M218.8,351.1V371h-2.6v-19.9H218.8z"/>
	<path class="st3" d="M223.5,353.6h-3.2v-2.5h9v2.5h-3.2V371h-2.6L223.5,353.6z"/>
	<path class="st3" d="M234.5,351.1h7.3v2.5h-4.7v5.8h4.4v2.5h-4.4v9.2h-2.6V351.1z"/>
	<path class="st3" d="M252.4,356.2v9.6c0,3.7-1.5,5.5-4.7,5.5c-3.1,0-4.4-1.9-4.4-5.4v-9.7c0-3.6,1.7-5.4,4.6-5.4
		C250.8,350.8,252.4,352.7,252.4,356.2z M245.9,356v10.2c0,1.9,0.7,2.7,1.9,2.7c1.3,0,1.9-0.8,1.9-2.8V356c0-1.8-0.6-2.7-1.9-2.7
		C246.6,353.2,245.9,354.1,245.9,356L245.9,356z"/>
	<path class="st3" d="M257.4,361.9v9.1h-2.6v-19.9h3.9c3,0,4.6,1.2,4.6,4.7v0.8c0,2.9-1.1,3.8-2,4.2c1.2,0.5,1.8,1.4,1.8,4.1
		c-0.1,2,0,4.1,0.2,6.1h-2.6c-0.2-2-0.3-4-0.2-5.9c0-2.5-0.3-3.1-2.2-3.1L257.4,361.9z M257.4,359.7h0.9c1.7,0,2.3-0.8,2.3-3V356
		c0-1.7-0.4-2.7-2.2-2.7h-1V359.7z"/>
	<path class="st3" d="M269.3,351.1h4c3,0,4.5,1.5,4.5,4.9v1.2c0,3.2-1,5.4-4.7,5.4h-1.2v8.4h-2.6V351.1z M271.9,360.4h1
		c2,0,2.4-1.2,2.4-3.2v-1c0-1.5-0.3-2.8-2.1-2.8h-1.2V360.4z"/>
	<path class="st3" d="M286.8,361.7h-4.4v6.9h5l-0.3,2.5h-7.3v-19.9h7.2v2.5h-4.6v5.7h4.4L286.8,361.7z"/>
	<path class="st3" d="M291.6,361.9v9.1h-2.6v-19.9h3.9c3,0,4.6,1.2,4.6,4.7v0.8c0,2.9-1.1,3.8-2,4.2c1.2,0.5,1.8,1.4,1.8,4.1
		c-0.1,2,0,4.1,0.2,6.1h-2.6c-0.2-2-0.3-4-0.2-5.9c0-2.5-0.3-3.1-2.2-3.1L291.6,361.9z M291.6,359.7h0.9c1.7,0,2.3-0.8,2.3-3V356
		c0-1.7-0.4-2.7-2.2-2.7h-1V359.7z"/>
	<path class="st3" d="M309.5,363.2c0-3.5,0-7.6,0.1-9.8h0c-0.5,3.4-1.7,11.8-2.7,17.6h-2.5c-0.7-5.2-2-14-2.4-17.6h-0.1
		c0.1,2.3,0.2,6.8,0.2,10.2v7.4h-2.4v-19.9h3.9c0.9,5.4,1.9,11.8,2.2,14.5h0c0.3-2.7,1.6-9.4,2.5-14.5h3.8V371h-2.5L309.5,363.2z"/>
	<path class="st3" d="M317.4,351.1V371h-2.6v-19.9H317.4z"/>
	<path class="st3" d="M322,353.6h-3.2v-2.5h9v2.5h-3.2V371H322L322,353.6z"/>
	<path class="st3" d="M331.8,353.6h-3.2v-2.5h9v2.5h-3.2V371h-2.6V353.6z"/>
	<path class="st3" d="M341.6,351.1V371H339v-19.9H341.6z"/>
	<path class="st3" d="M344.4,371v-19.9h3.1c0.9,3.2,3.4,13.3,3.7,14.6h0c-0.1-2.5-0.1-5.3-0.1-8.6v-6h2.4V371h-3
		c-0.8-3-3.5-13.9-3.8-15h0c0.1,2.4,0.2,5.3,0.2,8.9v6.1H344.4z"/>
	<path class="st3" d="M364.6,371h-2.1c-0.1-0.5-0.1-1.1-0.1-1.6c-0.4,1.2-1.6,2-2.9,1.9c-2.8,0-3.7-2.1-3.7-5.4v-9.6
		c0-3.3,1.3-5.5,4.5-5.5c3.8,0,4.3,2.8,4.3,5.1v0.6h-2.6v-0.7c0-1.2-0.2-2.6-1.7-2.6c-1.2,0-1.8,0.8-1.8,2.7v10.2
		c0,1.7,0.5,2.8,1.7,2.8c1.5,0,1.8-1.4,1.8-3.6v-3h-1.9V360h4.6V371z"/>
	<path class="st3" d="M373.4,365.2l-0.8,5.8H370l3.2-19.9h3.7l3.3,19.9h-2.8l-0.9-5.8H373.4z M376.3,362.8c-0.5-3.8-1-7.1-1.2-9.2
		h-0.1c-0.1,1.6-0.7,6-1.2,9.2H376.3z"/>
	<path class="st3" d="M381.7,371v-19.9h3.1c0.9,3.2,3.4,13.3,3.7,14.6h0c-0.1-2.5-0.1-5.3-0.1-8.6v-6h2.4V371h-3
		c-0.8-3-3.5-13.9-3.8-15h0c0.1,2.4,0.2,5.3,0.2,8.9v6.1H381.7z"/>
	<path class="st3" d="M393.6,351.1h3.9c4.2,0,5,2.4,5,5.9v7.7c0,3.1-0.5,6.3-5.1,6.3h-3.9L393.6,351.1z M396.2,368.7h1.1
		c2.2,0,2.6-1.3,2.6-3.6v-8.4c0-2-0.4-3.3-2.6-3.3h-1.1V368.7z"/>
	<path class="st3" d="M408.8,351.1h2.6v17.5h4.9l-0.2,2.4h-7.3V351.1z"/>
	<path class="st3" d="M420.3,351.1V371h-2.6v-19.9H420.3z"/>
	<path class="st3" d="M431.1,365.1v0.7c0,2.4-0.4,5.4-4.3,5.4c-3.5,0-4.2-2.4-4.2-5.4v-10.1c0-3.1,1.4-5,4.3-5
		c3.5,0,4.2,2.4,4.2,5.1v0.8h-2.6v-1.1c0-1.4-0.3-2.4-1.5-2.4c-1.2,0-1.6,0.9-1.6,2.4v10.5c0,1.6,0.3,2.7,1.6,2.7
		c1.3,0,1.6-1.1,1.6-2.7v-1H431.1z"/>
	<path class="st3" d="M440,361.7h-4.4v6.9h5l-0.3,2.5H433v-19.9h7.2v2.5h-4.6v5.7h4.4L440,361.7z"/>
	<path class="st3" d="M442.2,371v-19.9h3.1c0.9,3.2,3.4,13.3,3.7,14.6h0c-0.1-2.5-0.1-5.3-0.1-8.6v-6h2.4V371h-3
		c-0.8-3-3.5-13.9-3.8-15h0c0.1,2.4,0.2,5.3,0.2,8.9v6.1H442.2z"/>
	<path class="st3" d="M455.7,365.2v1.2c0,1.6,0.5,2.5,1.8,2.5c1.3,0,1.7-1.1,1.7-2.8c0-2.2-0.5-3-2.6-4.7c-2.1-1.7-3.2-2.7-3.2-5.7
		c0-2.6,0.8-5.1,4.1-5.1c3.3,0,4,2.4,4,4.7v1h-2.6v-0.9c0-1.5-0.3-2.4-1.4-2.4c-1.1,0-1.4,1-1.4,2.4c0,1.6,0.3,2.3,2.1,3.6
		c2.8,2.2,3.7,3.4,3.7,6.7c0,2.8-0.9,5.4-4.4,5.4c-3.4,0-4.3-2.2-4.3-4.9v-1.2L455.7,365.2z"/>
	<path class="st3" d="M466.4,351.1V371h-2.6v-19.9H466.4z"/>
	<path class="st3" d="M469.2,371v-19.9h3.1c0.9,3.2,3.4,13.3,3.7,14.6h0c-0.1-2.5-0.1-5.3-0.1-8.6v-6h2.4V371h-3
		c-0.8-3-3.5-13.9-3.8-15h0c0.1,2.4,0.2,5.3,0.2,8.9v6.1H469.2z"/>
	<path class="st3" d="M489.5,371h-2.1c-0.1-0.5-0.1-1.1-0.1-1.6c-0.4,1.2-1.6,2-2.9,1.9c-2.8,0-3.7-2.1-3.7-5.4v-9.6
		c0-3.3,1.3-5.5,4.5-5.5c3.8,0,4.3,2.8,4.3,5.1v0.6h-2.6v-0.7c0-1.2-0.2-2.6-1.7-2.6c-1.2,0-1.8,0.8-1.8,2.7v10.2
		c0,1.7,0.5,2.8,1.7,2.8c1.5,0,1.8-1.4,1.8-3.6v-3h-1.9V360h4.6V371z"/>
</g>
<g>
	
		<linearGradient id="SVGID_1_" gradientUnits="userSpaceOnUse" x1="29.5226" y1="353.6329" x2="489.4488" y2="353.6329" gradientTransform="matrix(1 0 0 -1 -1.0123 559.7338)">
		<stop  offset="0" style="stop-color:#30A4E1"/>
		<stop  offset="0.1288" style="stop-color:#2E9BD9"/>
		<stop  offset="0.3429" style="stop-color:#2881C5"/>
		<stop  offset="0.5843" style="stop-color:#1F5DA7"/>
		<stop  offset="0.9986" style="stop-color:#08274D"/>
	</linearGradient>
	<path class="st4" d="M34.7,233c-29.5-44.5,47.9-126.6,195.7-59.5c67.1,31.3,182.3,109.8,243.3,44.6c7.2-7.8,14.5-19.6,12.8-30.2
		c11.7,24.6-31.6,114.7-174.3,57.8C237,215.7,171.1,160,93.4,171.7C52.8,177.5,25.3,202.2,34.7,233z"/>
	
		<linearGradient id="SVGID_2_" gradientUnits="userSpaceOnUse" x1="344.7134" y1="394.486" x2="483.389" y2="394.486" gradientTransform="matrix(1 0 0 -1 -1.0123 559.7338)">
		<stop  offset="0" style="stop-color:#30A4E1"/>
		<stop  offset="0.1288" style="stop-color:#2E9BD9"/>
		<stop  offset="0.3429" style="stop-color:#2881C5"/>
		<stop  offset="0.5843" style="stop-color:#1F5DA7"/>
		<stop  offset="0.9986" style="stop-color:#08274D"/>
	</linearGradient>
	<path class="st5" d="M343.7,213.3c40.7,8,75.4-3,93.8-18.3c26.8-22.5,16.3-54.7-3.3-65.3c-20.3-11.3-44,6.6-40.6,27
		c2.6,13.1,13.6,22.6,26.6,23c-7.2,3.1-15.3,2.9-22.3-0.6c-26.6-12-27.3-48.2-4.7-67.7c19.6-17.2,52.3-16.7,74.3,9.5
		c23.1,28.6,20.6,72.5-15.5,95.7C424.2,235,376,237.5,343.7,213.3z"/>
	
		<linearGradient id="SVGID_3_" gradientUnits="userSpaceOnUse" x1="44.6691" y1="321.5395" x2="316.6339" y2="321.5395" gradientTransform="matrix(1 0 0 -1 -1.0123 559.7338)">
		<stop  offset="0" style="stop-color:#30A4E1"/>
		<stop  offset="0.1288" style="stop-color:#2E9BD9"/>
		<stop  offset="0.3429" style="stop-color:#2881C5"/>
		<stop  offset="0.5843" style="stop-color:#1F5DA7"/>
		<stop  offset="0.9986" style="stop-color:#08274D"/>
	</linearGradient>
	<path class="st6" d="M315.6,257.5c-38,17.8-120.4-29.8-165.2-39.4c-91.1-21.1-108.6,46-83.5,73.5c-32.5-13.2-35-77.4,18.7-99.2
		C170.7,156.8,265,256.6,315.6,257.5z"/>
</g>
</svg>
