<svg id="Layer_1" data-name="Layer 1" xmlns="http://www.w3.org/2000/svg" width="77.61401" height="85.77173" viewBox="0 0 77.61401 85.77173">
  <defs>
    <style>
      .cls-1 {
        fill: #45d0f6;
      }
    </style>
  </defs>
  <path class="cls-1" d="M20.56342,39.48633H38.57959a1.78732,1.78732,0,0,0,0-3.57459H20.56342a1.78732,1.78732,0,0,0,0,3.57459Zm43.78668-.23248V23.00763a1.84484,1.84484,0,0,0-.51569-1.23322L45.71143,2.668a1.7596,1.7596,0,0,0-1.28064-.55389H15.72589A9.58818,9.58818,0,0,0,6.193,11.78326V66.33112a9.52671,9.52671,0,0,0,9.5329,9.59759H38.36621A24.496,24.496,0,1,0,64.3501,39.25385ZM46.20941,8.38733l12.1471,12.85089H50.47778a4.2955,4.2955,0,0,1-4.26837-4.30749Zm-9.46173,45.576H20.56342a1.78734,1.78734,0,0,0,0,3.57464H35.59167a24.69283,24.69283,0,0,0,1.01386,14.83417H15.72589A5.97347,5.97347,0,0,1,9.75,66.34906V11.78326a6.02364,6.02364,0,0,1,5.97589-6.09454H42.65228V16.94843a7.86055,7.86055,0,0,0,7.8255,7.8822H60.79309V38.78912c-.4801-.0357-.96039-.0357-1.44061-.0357a24.299,24.299,0,0,0-16.0954,6.09472H20.56342a1.78732,1.78732,0,0,0,0,3.57459H39.93127A24.74159,24.74159,0,0,0,36.74768,53.96332ZM59.3526,84.31116A21.0008,21.0008,0,1,1,80.25,63.31061,20.97049,20.97049,0,0,1,59.3526,84.31116Zm.3056-30.33161a4.95889,4.95889,0,1,0,4.93451,4.95887A4.948,4.948,0,0,0,59.6582,53.97955Zm0,6.612A1.65319,1.65319,0,1,1,61.303,58.93842,1.65034,1.65034,0,0,1,59.6582,60.59155Zm0-13.22412A11.54215,11.54215,0,0,0,48.144,58.93842a22.23469,22.23469,0,0,0,1.92432,8.12591,56.49263,56.49263,0,0,0,3.227,6.53772c1.10223,1.93848,2.28113,3.81451,3.46008,5.55841.70935,1.0495,1.26373,1.82575,1.58685,2.25867a1.64009,1.64009,0,0,0,2.63178,0c.32312-.43292.87762-1.20917,1.58691-2.25867,1.179-1.7439,2.35779-3.61993,3.46-5.55841a56.46285,56.46285,0,0,0,3.227-6.53772,22.23246,22.23246,0,0,0,1.92438-8.12591A11.54212,11.54212,0,0,0,59.6582,47.36743Zm6.545,18.445a53.24455,53.24455,0,0,1-3.03858,6.14947c-1.05682,1.85852-2.191,3.66321-3.32513,5.34125q-.09257.13687-.18128.26746-.089-.13074-.18152-.26746c-1.134-1.678-2.26831-3.48273-3.325-5.34125a53.25412,53.25412,0,0,1-3.03857-6.14947,19.23177,19.23177,0,0,1-1.67932-6.874,8.2244,8.2244,0,1,1,16.44861,0A19.234,19.234,0,0,1,66.20319,65.81244Z" transform="translate(-6.19299 -2.11414)"/>
</svg>
