<svg id="Layer_1" data-name="Layer 1" xmlns="http://www.w3.org/2000/svg" width="79.02356" height="78.99701" viewBox="0 0 79.02356 78.99701">
  <defs>
    <style>
      .cls-1 {
        fill: #45d0f6;
      }
    </style>
  </defs>
  <path class="cls-1" d="M69.99622,63.25891,66.918,59.51068l-2.56512,2.411,7.28491,8.87262,7.22986-8.8089-2.5658-2.4126L73.222,63.3266V43.3877H54.67529L45.00012,33.715,35.324,43.3877H16.77728V63.26111l-3.0791-3.75043-2.56506,2.41168,7.28338,8.8725,7.23072-8.81036-2.56513-2.41169-3.079,3.75379V46.61218H35.32318l9.67694,9.67353,9.6767-9.67353h15.3194ZM45.00012,51.7724l-6.775-6.77161,6.775-6.77258,6.774,6.77258ZM5.48822,84.49847H31.292V71.60059H5.48822Zm3.19238-9.7066H28.09967v6.51532H8.6806ZM58.708,71.60059V84.49847H84.51178V71.60059Zm22.61151,9.7066H61.90033V74.79187H81.31952ZM43.38708,25.37366l-3.079-3.75055L37.743,24.03717l7.28424,8.87189,7.23065-8.808-2.56427-2.4132-3.07983,3.75128v-7.0398H57.90363V5.50146H32.09808V18.39929h11.289ZM35.29041,15.208V8.69269H54.70959V15.208Z" transform="translate(-5.48822 -5.50146)"/>
</svg>
