<svg id="Layer_1" data-name="Layer 1" xmlns="http://www.w3.org/2000/svg" width="87.40955" height="35.25273" viewBox="0 0 87.40955 35.25273">
  <defs>
    <style>
      .cls-1 {
        fill: #45d0f6;
      }
    </style>
  </defs>
  <path class="cls-1" d="M88.35883,43.56689c.31878,1.95234-1.06141,4.1178-2.4372,5.54541-11.60211,11.97089-33.504-2.44891-46.24847-8.18652C11.58173,28.62378-3.13416,43.69354,2.47522,51.85413.67743,46.20166,5.9129,41.66785,13.63647,40.60071c14.76331-2.1333,27.29163,8.08557,41.60181,13.56708C82.35834,64.62939,90.58478,48.079,88.35883,43.56689Zm-6.601,5.26246A11.48428,11.48428,0,0,0,84.70642,31.269C80.532,26.4566,74.31268,26.37756,70.58331,29.53064c-4.28442,3.57806-4.15014,10.229.90168,12.43365a5.2581,5.2581,0,0,0,4.24163.10621A5.334,5.334,0,0,1,70.67688,37.84C70.036,34.10522,74.543,30.82465,78.394,32.89209c3.71,1.94824,5.71607,7.86041.62122,11.995-3.48438,2.81952-10.07587,4.83576-17.81763,3.361C67.343,52.68707,76.48834,52.22412,81.75781,48.82935ZM12.13849,44.41071C1.94922,48.42255,2.41632,60.19611,8.59387,62.62634,3.8288,57.58527,7.14264,45.26239,24.46423,49.13788,32.97247,50.89478,48.632,59.62439,55.861,56.366,46.24176,56.19781,28.32391,37.87714,12.13849,44.41071Z" transform="translate(-1.29522 -27.37361)"/>
</svg>
