<svg id="Layer_1" data-name="Layer 1" xmlns="http://www.w3.org/2000/svg" width="77.61902" height="85.69409" viewBox="0 0 77.61902 85.69409">
  <defs>
    <style>
      .cls-1 {
        fill: #45d0f6;
      }
    </style>
  </defs>
  <path class="cls-1" d="M20.56171,39.49121H38.5791a1.78575,1.78575,0,0,0,0-3.57147H20.56171a1.78575,1.78575,0,0,0,0,3.57147Zm43.78961-.2323V23.02753a1.84307,1.84307,0,0,0-.51575-1.2323L45.71149,2.70654a1.76009,1.76009,0,0,0-1.2807-.55359H15.72388a9.5838,9.5838,0,0,0-9.53339,9.66059V66.312a9.52275,9.52275,0,0,0,9.53339,9.58887H38.36572a24.48951,24.48951,0,1,0,25.9856-36.64191ZM46.20947,8.42035,58.35742,21.2597H50.47821a4.29382,4.29382,0,0,1-4.26874-4.30377ZM36.74719,53.95514H20.56171a1.78566,1.78566,0,0,0,0,3.57129H35.59113a24.64868,24.64868,0,0,0,1.01379,14.82123h-20.881a5.971,5.971,0,0,1-5.97626-6.01783V11.81354a6.02109,6.02109,0,0,1,5.97626-6.0893H42.65222V16.97406a7.857,7.857,0,0,0,7.826,7.87476h10.316v13.9461c-.48029-.036-.96051-.036-1.4408-.036A24.31091,24.31091,0,0,0,43.257,44.84845H20.56171a1.7855,1.7855,0,0,0,0,3.571h19.3692A24.725,24.725,0,0,0,36.74719,53.95514ZM59.35352,84.27576A20.98176,20.98176,0,1,1,80.2522,63.294,20.96182,20.96182,0,0,1,59.35352,84.27576Zm6.33166-18.37494A10.20588,10.20588,0,0,0,57.2851,49.95813a10.04684,10.04684,0,0,0-3.955.80322,10.19538,10.19538,0,1,0,9.66833,17.83319l4.75391,4.77289a1.88486,1.88486,0,0,0,1.34351.55878,1.86571,1.86571,0,0,0,1.33648-.552,1.90594,1.90594,0,0,0,.01087-2.70026Zm-8.40008.65259a6.39245,6.39245,0,1,1,6.367-6.39228A6.38671,6.38671,0,0,1,57.2851,66.55341Z" transform="translate(-6.19049 -2.15295)"/>
</svg>
