<svg id="Layer_1" data-name="Layer 1" xmlns="http://www.w3.org/2000/svg" width="86.02318" height="85.0015" viewBox="0 0 86.02318 85.0015">
  <defs>
    <style>
      .cls-1 {
        fill: #45d0f6;
      }
    </style>
  </defs>
  <path class="cls-1" d="M64.71852,87.50075a1.11152,1.11152,0,0,1-.1161-.0058,1.45955,1.45955,0,0,1-.9464-.4976,1.25618,1.25618,0,0,1-.3195-.9499c1.2051-12.9955,7.3394-15.7221,12.2738-15.7221,4.9841,0,11.1803,2.7266,12.3953,15.7163a1.26146,1.26146,0,0,1-.3187.9557,1.46146,1.46146,0,0,1-.9077.4931H86.586a1.37655,1.37655,0,0,1-1.42-1.2573c-.776-8.7603-3.9912-13.2076-9.5557-13.2076-5.4353,0-8.6502,4.4427-9.5554,13.2046a1.40464,1.40464,0,0,1-1.336,1.2706Zm-61.34219,0a1.11614,1.11614,0,0,1-.1162-.0058,1.45956,1.45956,0,0,1-.9463-.4976,1.25666,1.25666,0,0,1-.3196-.9499c1.2057-12.9955,7.3399-15.7221,12.27389-15.7221,4.9841,0,11.1803,2.7266,12.3957,15.7163a1.25993,1.25993,0,0,1-.3192.9557,1.4624,1.4624,0,0,1-.9076.4931h-.1932a1.37625,1.37625,0,0,1-1.4199-1.2573c-.7752-8.7603-3.9909-13.2076-9.5558-13.2076-5.43569,0-8.65019,4.4427-9.55489,13.2052a1.40514,1.40514,0,0,1-1.3365,1.27ZM61.22,68.528a1.08952,1.08952,0,0,1-.5975-.2132l-.0513-.0317-15.3269-8.7655-15.3531,8.7801-.0248.0168a1.09228,1.09228,0,0,1-.5979.2135,1.31774,1.31774,0,0,1-1.1452-.597,1.49439,1.49439,0,0,1,.5249-1.9955l15.3025-8.7513V39.52505a1.41632,1.41632,0,0,1,1.4154-1.4108c.8648,0,1.1718.7604,1.1718,1.4108v17.6592l15.3309,8.7675a1.33912,1.33912,0,0,1,.6439.8471,1.492,1.492,0,0,1-.1299,1.0976A1.32292,1.32292,0,0,1,61.22,68.528Zm14.5121-1.2152a6.75929,6.75929,0,1,1,6.7815-6.7593A6.778,6.778,0,0,1,75.73212,67.31285Zm0-10.6964a3.93732,3.93732,0,1,0,0,7.8746,4.07135,4.07135,0,0,0,2.972-1.2716,3.587,3.587,0,0,0,.9786-2.6975A3.90179,3.90179,0,0,0,75.73212,56.61645Zm-61.3544,10.6964a6.75931,6.75931,0,1,1,6.7941-6.7593A6.93262,6.93262,0,0,1,14.37772,67.31285Zm.1345-10.6964a3.93732,3.93732,0,1,0,3.9501,3.9371A3.902,3.902,0,0,0,14.51222,56.61645Zm19.5974-20.2891a1.09707,1.09707,0,0,1-.117-.0061,1.45877,1.45877,0,0,1-.9467-.4977,1.25585,1.25585,0,0,1-.3197-.9495c1.2057-12.9957,7.3399-15.7218,12.2739-15.7218,4.9899,0,11.1905,2.7261,12.3952,15.715a1.2591,1.2591,0,0,1-.3186.9563,1.45882,1.45882,0,0,1-.9077.4931h-.1931a1.37613,1.37613,0,0,1-1.42-1.2566c-.7752-8.7603-3.9909-13.2079-9.5558-13.2079-5.4356,0-8.6505,4.443-9.5549,13.2054A1.4045,1.4045,0,0,1,34.10962,36.32735ZM45.122,16.01755a6.75919,6.75919,0,1,1,6.7815-6.759A6.77779,6.77779,0,0,1,45.122,16.01755Zm0-10.6964a3.93742,3.93742,0,1,0,3.9505,3.9374A3.90162,3.90162,0,0,0,45.122,5.32115Z" transform="translate(-1.98841 -2.49925)"/>
</svg>
