<svg id="Layer_1" data-name="Layer 1" xmlns="http://www.w3.org/2000/svg" width="78.02026" height="86.00861" viewBox="0 0 78.02026 86.00861">
  <defs>
    <style>
      .cls-1 {
        fill: #45d0f6;
      }
    </style>
  </defs>
  <path class="cls-1" d="M20.43536,39.47089H38.546a1.79222,1.79222,0,0,0,0-3.58442H20.43536a1.79222,1.79222,0,0,0,0,3.58442ZM69.958,49.1488h-21.132a1.77333,1.77333,0,0,0-1.609,2.563l7.40149,14.66028V80.27991A1.80025,1.80025,0,0,0,57.58624,81.642L63.486,76.62366a1.79661,1.79661,0,0,0,.60791-1.36219v-8.8894L71.53125,51.694a1.73649,1.73649,0,0,0-.05371-1.7204A1.768,1.768,0,0,0,69.958,49.1488Zm-9.4397,25.27057-2.32422,1.989V67.77008h2.32422Zm.71521-10.21588h-3.683L51.74,52.73346h15.3216Zm3.218-24.96551V22.94666a1.848,1.848,0,0,0-.51856-1.23676L45.71515,2.55121A1.77058,1.77058,0,0,0,44.428,1.99567H15.57257a9.62611,9.62611,0,0,0-9.5827,9.69574V66.3902a9.565,9.565,0,0,0,9.5827,9.6242h22.759A24.60358,24.60358,0,1,0,64.45148,39.238ZM46.21576,8.28607,58.42657,21.17236h-7.9201A4.31248,4.31248,0,0,1,46.21576,16.853ZM36.70453,53.98779H20.43536a1.79225,1.79225,0,0,0,0,3.58448H35.54254a24.70556,24.70556,0,0,0,1.019,14.87554h-20.989a5.99719,5.99719,0,0,1-6.007-6.03985V11.69141A6.04726,6.04726,0,0,1,15.57257,5.58H42.64014V16.87109a7.89138,7.89138,0,0,0,7.86633,7.90357H60.87585V38.77209c-.48278-.036-.96551-.036-1.44818-.036a24.4591,24.4591,0,0,0-16.17975,6.1117H20.43536a1.79221,1.79221,0,0,0,0,3.58441H39.90472A24.79475,24.79475,0,0,0,36.70453,53.98779Zm22.72314,30.432a21.05863,21.05863,0,1,1,21.0069-21.05853A21.05414,21.05414,0,0,1,59.42767,84.4198Z" transform="translate(-5.98987 -1.99567)"/>
</svg>
