<svg id="Layer_1" data-name="Layer 1" xmlns="http://www.w3.org/2000/svg" xmlns:xlink="http://www.w3.org/1999/xlink" width="7.07187in" height="2.77888in" viewBox="0 0 509.1748 200.07964">
  <defs>
    <style>
      .cls-1 {
        fill: #08274d;
      }

      .cls-2 {
        fill: #1f5da7;
      }

      .cls-3 {
        fill: url(#New_Gradient_Swatch_2);
      }

      .cls-4 {
        fill: url(#New_Gradient_Swatch_2-2);
      }

      .cls-5 {
        fill: url(#New_Gradient_Swatch_2-3);
      }
    </style>
    <linearGradient id="New_Gradient_Swatch_2" data-name="New Gradient Swatch 2" x1="119.1281" y1="62.15616" x2="392.0719" y2="62.15616" gradientUnits="userSpaceOnUse">
      <stop offset="0" stop-color="#30a4e1"/>
      <stop offset="0.12881" stop-color="#2e9bd9"/>
      <stop offset="0.3429" stop-color="#2881c5"/>
      <stop offset="0.58427" stop-color="#1f5da7"/>
      <stop offset="0.99864" stop-color="#08274d"/>
    </linearGradient>
    <linearGradient id="New_Gradient_Swatch_2-2" x1="306.17849" y1="38.607" x2="388.4757" y2="38.607" xlink:href="#New_Gradient_Swatch_2"/>
    <linearGradient id="New_Gradient_Swatch_2-3" x1="128.1168" y1="80.65601" x2="289.51466" y2="80.65601" xlink:href="#New_Gradient_Swatch_2"/>
  </defs>
  <g>
    <g>
      <path class="cls-1" d="M34.47744,156.17034c0-5.45118.17383-14.209.34766-19.25489h-.34766c-1.21875,8.6416-2.55273,19.48731-4.11816,29.5791H18.35439c-1.39257-11.6582-2.32031-19.25585-3.53906-29.34765h-.46289c.28906,4.69824.5791,12.00586.5791,18.84961v10.498H1.0126V126.475H23.16689c.46485,4.582,1.45118,15.02149,1.85645,20.47461h.46387c1.10254-8.0039,1.50781-13.8623,2.55273-20.47461H49.789v40.01953H34.47744Z" transform="translate(-1.0126 -0.76018)"/>
      <path class="cls-1" d="M69.74014,160.23088l-1.334,6.26367H52.97939L64.17275,126.475H85.45791l11.542,40.01953H80.412l-1.334-6.26367Zm7.13379-10.55664c-.52149-3.18945-1.68164-9.2207-2.43555-13.45508h-.34766c-.8125,4.75586-1.625,9.62793-2.3789,13.45508Z" transform="translate(-1.0126 -0.76018)"/>
      <path class="cls-1" d="M115.44424,152.34221v14.15234H100.0165V126.475h23.14063c10.49805,0,14.67383,5.33594,14.67383,11.13672a9.6386,9.6386,0,0,1-6.78516,9.51172c4.05957,1.2168,6.14746,5.16211,6.14746,11.13477v.98632a52.902,52.902,0,0,0,.40528,7.25H122.22939c-.63769-1.68164-.8125-4.46582-.8125-8.11914v-1.97265c0-2.32031-.52148-4.06055-3.65332-4.06055Zm0-9.51172h2.668c2.957,0,4.00195-1.50781,4.00195-3.47949,0-2.03027-1.16016-3.36426-4.06055-3.36426h-2.60937Z" transform="translate(-1.0126 -0.76018)"/>
      <path class="cls-1" d="M158.59561,126.475v40.01953H142.53018V126.475Z" transform="translate(-1.0126 -0.76018)"/>
      <path class="cls-1" d="M164.97549,166.49455V126.475H183.536c3.07324,9.22266,4.75585,15.54395,6.32128,21.51758h.34864c-.40625-4.52344-.69727-11.541-.69727-17.57324V126.475h14.73242v40.01953h-17.748c-2.14551-6.55371-5.04493-16.123-6.959-22.56152h-.23242c.52148,4.69824.40625,10.96192.40625,17.80567v4.75585Z" transform="translate(-1.0126 -0.76018)"/>
      <path class="cls-1" d="M242.75283,151.6469H225.8749v4.292h19.25586l-1.68164,10.55566H210.621V126.475h32.82812v10.55664H225.8749v4.05957h16.87793Z" transform="translate(-1.0126 -0.76018)"/>
      <path class="cls-1" d="M292.3417,151.6469H275.46377v4.292h19.25586L293.038,166.49455H260.20986V126.475H293.038v10.55664H275.46377v4.05957H292.3417Z" transform="translate(-1.0126 -0.76018)"/>
      <path class="cls-1" d="M298.7792,166.49455V126.475h18.55957c3.07422,9.22266,4.75684,15.54395,6.32227,21.51758h.34765c-.40527-4.52344-.69531-11.541-.69531-17.57324V126.475h14.73144v40.01953h-17.748c-2.14551-6.55371-5.0459-16.123-6.959-22.56152h-.23242c.52149,4.69824.40625,10.96192.40625,17.80567v4.75585Z" transform="translate(-1.0126 -0.76018)"/>
      <path class="cls-1" d="M376.55654,151.6469H359.67861v4.292h19.25586l-1.68164,10.55566H344.42471V126.475h32.82812v10.55664H359.67861v4.05957h16.87793Z" transform="translate(-1.0126 -0.76018)"/>
      <path class="cls-1" d="M398.42178,152.34221v14.15234H382.994V126.475h23.1416c10.498,0,14.67383,5.33594,14.67383,11.13672a9.63817,9.63817,0,0,1-6.78613,9.51172c4.06055,1.2168,6.14844,5.16211,6.14844,11.13477v.98632a52.73314,52.73314,0,0,0,.40625,7.25H405.20791c-.6377-1.68164-.81152-4.46582-.81152-8.11914v-1.97265c0-2.32031-.52246-4.06055-3.6543-4.06055Zm0-9.51172h2.668c2.958,0,4.002-1.50781,4.002-3.47949,0-2.03027-1.15918-3.36426-4.05957-3.36426h-2.61035Z" transform="translate(-1.0126 -0.76018)"/>
      <path class="cls-1" d="M465.58486,166.49455H455.8417a31.985,31.985,0,0,1-.8125-3.71191c-2.14551,2.89941-5.79981,4.75586-12.06348,4.75586-13.39746,0-18.84961-10.14941-18.84961-20.70605,0-12.70118,7.25-21.4004,21.69141-21.4004,14.96387,0,19.4873,8.583,19.83594,13.62891H449.9833c-.34766-1.85547-1.16016-3.6543-4.11816-3.6543-4.34961,0-5.27735,5.04688-5.27735,11.02051,0,5.8584.92774,11.13574,5.16211,11.13574,3.82715,0,4.63965-3.18945,4.63965-5.45214v-.11622h-5.74219v-9.16406h20.9375Z" transform="translate(-1.0126 -0.76018)"/>
      <path class="cls-1" d="M479.7958,166.49455V152.92229a2.84979,2.84979,0,0,0-.52148-1.85547L465.64443,126.475h18.03711c1.79785,5.1045,3.30664,9.74414,4.81446,14.38477,1.3916-4.4082,3.5957-10.15039,5.04589-14.38477H510.1874l-13.91992,24.76563a3.93107,3.93107,0,0,0-.40625,1.79883v13.45507Z" transform="translate(-1.0126 -0.76018)"/>
    </g>
    <g>
      <path class="cls-2" d="M8.79479,190.4072H4.00086v7.46161H9.49135l-.37644,2.6667H1.1v-21.625H9.06353v2.68942H4.00086v6.14062H8.79479Z" transform="translate(-1.0126 -0.76018)"/>
      <path class="cls-2" d="M11.19175,200.53551v-21.625h3.3929c.99,3.45218,3.75056,14.40549,4.03116,15.81245h.04249c-.14228-2.76451-.162-5.80765-.162-9.34974v-6.46271H21.1926v21.625H17.9232c-.87934-3.20419-3.85035-15.0823-4.14874-16.33314h-.03161c.15215,2.61235.168,5.76417.168,9.659v6.67415Z" transform="translate(-1.0126 -0.76018)"/>
      <path class="cls-2" d="M26.73545,200.53551l-3.77823-21.625h3.134l1.27159,9.17486c.40411,2.95915.9416,6.28585,1.13525,8.669h.05533c.18476-2.27049.75387-5.61893,1.13624-8.59389l1.24195-9.24995h3.10143l-3.72685,21.625Z" transform="translate(-1.0126 -0.76018)"/>
      <path class="cls-2" d="M38.60072,178.91047v21.625H35.70085v-21.625Z" transform="translate(-1.0126 -0.76018)"/>
      <path class="cls-2" d="M44.55756,190.68583v9.84968H41.65769v-21.625H45.923c3.27334,0,5.07057,1.35262,5.07057,5.11207v.89318c0,3.15973-1.22417,4.15665-2.20133,4.52914,1.30815.55725,1.99483,1.51761,1.99483,4.43428a58.69755,58.69755,0,0,0,.20354,6.65637h-2.809a48.14866,48.14866,0,0,1-.22725-6.45876c0-2.70523-.36162-3.39092-2.38511-3.39092Zm0-2.41772H45.595c1.88714,0,2.48984-.88626,2.48984-3.22v-.8339c0-1.80019-.42683-2.887-2.43352-2.887H44.55756Z" transform="translate(-1.0126 -0.76018)"/>
      <path class="cls-2" d="M63.16416,184.46913v10.43559c0,3.99955-1.67768,5.9351-5.15555,5.9351-3.44526,0-4.87692-2.062-4.87692-5.88965V184.45728c0-3.94422,1.91085-5.85112,5.06465-5.85112C61.44,178.60616,63.16416,180.62174,63.16416,184.46913ZM56.0859,184.236v11.02247c0,2.063.74794,2.96014,2.05511,2.96014,1.3951,0,2.067-.85168,2.067-3.03127V184.22311c0-1.96124-.63629-2.973-2.07684-2.973C56.7795,181.25013,56.0859,182.18481,56.0859,184.236Z" transform="translate(-1.0126 -0.76018)"/>
      <path class="cls-2" d="M65.77651,200.53551v-21.625h3.3929c.99,3.45218,3.75057,14.40549,4.03117,15.81245h.04248c-.14227-2.76451-.162-5.80765-.162-9.34974v-6.46271h2.69633v21.625H72.508c-.87935-3.20419-3.85036-15.0823-4.14874-16.33314h-.03162c.15215,2.61235.168,5.76417.168,9.659v6.67415Z" transform="translate(-1.0126 -0.76018)"/>
      <path class="cls-2" d="M89.68094,192.079c0-3.797.05137-8.24611.11658-10.65493h-.03359c-.51378,3.70117-1.902,12.7792-2.9305,19.11149H84.063c-.77264-5.59423-2.18948-15.21963-2.69535-19.13421h-.06422c.06422,2.51552.17093,7.41319.17093,11.1272v8.007h-2.6499v-21.625h4.31276c.987,5.87286,2.08573,12.77722,2.3772,15.69191h.0326c.34581-2.91173,1.72115-10.15893,2.721-15.69191h4.1853v21.625H89.68094Z" transform="translate(-1.0126 -0.76018)"/>
      <path class="cls-2" d="M103.16953,190.4072H98.37561v7.46161h5.49049l-.37644,2.6667H95.47475v-21.625h7.96353v2.68942H98.37561v6.14062h4.79392Z" transform="translate(-1.0126 -0.76018)"/>
      <path class="cls-2" d="M105.5665,200.53551v-21.625h3.3929c.99,3.45218,3.75056,14.40549,4.03116,15.81245h.04249c-.14228-2.76451-.162-5.80765-.162-9.34974v-6.46271h2.69634v21.625H112.298c-.87934-3.20419-3.85035-15.0823-4.14874-16.33314h-.03162c.15216,2.61235.168,5.76417.168,9.659v6.67415Z" transform="translate(-1.0126 -0.76018)"/>
      <path class="cls-2" d="M120.63792,181.59989h-3.48379v-2.68942h9.87043v2.68942h-3.48578v18.93562h-2.90086Z" transform="translate(-1.0126 -0.76018)"/>
      <path class="cls-2" d="M129.98964,194.28028l-.87342,6.25523H126.1709l3.51245-21.625h4.10823l3.65176,21.625h-3.03226l-.96136-6.25523Zm3.10736-2.66669c-.60468-4.131-1.1066-7.69775-1.33681-9.97516h-.10967c-.08794,1.736-.79043,6.46468-1.28444,9.97516Z" transform="translate(-1.0126 -0.76018)"/>
      <path class="cls-2" d="M139.13979,178.91047h2.90086V197.937h5.43812l-.2717,2.59852h-8.06728Z" transform="translate(-1.0126 -0.76018)"/>
      <path class="cls-2" d="M155.18245,181.59989h-3.48281v-2.68942h9.86945v2.68942h-3.48677v18.93562h-2.89987Z" transform="translate(-1.0126 -0.76018)"/>
      <path class="cls-2" d="M172.62515,184.46913v10.43559c0,3.99955-1.67669,5.9351-5.15554,5.9351-3.44527,0-4.87594-2.062-4.87594-5.88965V184.45728c0-3.94422,1.91086-5.85112,5.06465-5.85112C170.901,178.60616,172.62515,180.62174,172.62515,184.46913Zm-7.07726-.23317v11.02247c0,2.063.74695,2.96014,2.0551,2.96014,1.39411,0,2.067-.85168,2.067-3.03127V184.22311c0-1.96124-.63629-2.973-2.07684-2.973C166.2405,181.25013,165.54789,182.18481,165.54789,184.236Z" transform="translate(-1.0126 -0.76018)"/>
      <path class="cls-2" d="M184.86291,184.46913v10.43559c0,3.99955-1.67669,5.9351-5.15555,5.9351-3.44526,0-4.87593-2.062-4.87593-5.88965V184.45728c0-3.94422,1.91085-5.85112,5.06464-5.85112C183.13879,178.60616,184.86291,180.62174,184.86291,184.46913Zm-7.07727-.23317v11.02247c0,2.063.74695,2.96014,2.0551,2.96014,1.39412,0,2.067-.85168,2.067-3.03127V184.22311c0-1.96124-.63629-2.973-2.07684-2.973C178.47825,181.25013,177.78564,182.18481,177.78564,184.236Z" transform="translate(-1.0126 -0.76018)"/>
      <path class="cls-2" d="M187.47625,178.91047h2.89987V197.937h5.43911l-.27171,2.59852h-8.06727Z" transform="translate(-1.0126 -0.76018)"/>
      <path class="cls-2" d="M197.2212,178.91047h2.85442v10.0463h.0326c.85762-2.09067,2.91173-6.97846,4.19024-10.0463h3.21407l-4.0203,8.47731,4.31177,13.14773h-3.15676L201.5221,190.421l-1.44648,2.95817v7.15631H197.2212Z" transform="translate(-1.0126 -0.76018)"/>
      <path class="cls-2" d="M211.93891,178.91047v21.625H209.039v-21.625Z" transform="translate(-1.0126 -0.76018)"/>
      <path class="cls-2" d="M217.01838,181.59989h-3.4838v-2.68942H223.405v2.68942h-3.48676v18.93562h-2.89987Z" transform="translate(-1.0126 -0.76018)"/>
      <path class="cls-2" d="M229.2087,178.91047h8.04653v2.68942h-5.14666v6.2572h4.88187v2.68942h-4.88187v9.989H229.2087Z" transform="translate(-1.0126 -0.76018)"/>
      <path class="cls-2" d="M248.86854,184.46913v10.43559c0,3.99955-1.67767,5.9351-5.15554,5.9351-3.44527,0-4.87692-2.062-4.87692-5.88965V184.45728c0-3.94422,1.91184-5.85112,5.06464-5.85112C247.14542,178.60616,248.86854,180.62174,248.86854,184.46913Zm-7.07726-.23317v11.02247c0,2.063.74695,2.96014,2.0551,2.96014,1.39411,0,2.067-.85168,2.067-3.03127V184.22311c0-1.96124-.63728-2.973-2.07684-2.973C242.48389,181.25013,241.79128,182.18481,241.79128,184.236Z" transform="translate(-1.0126 -0.76018)"/>
      <path class="cls-2" d="M254.38275,190.68583v9.84968h-2.89988v-21.625h4.26533c3.27335,0,5.07058,1.35262,5.07058,5.11207v.89318c0,3.15973-1.22417,4.15665-2.20133,4.52914,1.30716.55725,1.99384,1.51761,1.99384,4.43428a58.45137,58.45137,0,0,0,.20453,6.65637h-2.81a48.15358,48.15358,0,0,1-.22626-6.45876c0-2.70523-.36261-3.39092-2.38511-3.39092Zm0-2.41772h1.03743c1.88615,0,2.48885-.88626,2.48885-3.22v-.8339c0-1.80019-.42683-2.887-2.43352-2.887h-1.09276Z" transform="translate(-1.0126 -0.76018)"/>
      <path class="cls-2" d="M267.54036,178.91047h4.45009c3.34152,0,4.99943,1.66681,4.99943,5.35118V185.554c0,3.43539-1.1471,5.81753-5.17431,5.81753h-1.37534v9.164h-2.89987Zm2.89987,10.068h1.07c2.23691,0,2.5926-1.33681,2.5926-3.50554v-1.10363c0-1.647-.327-3.04214-2.3367-3.04214h-1.32593Z" transform="translate(-1.0126 -0.76018)"/>
      <path class="cls-2" d="M286.76942,190.4072h-4.79393v7.46161H287.466l-.37644,2.6667h-8.01392v-21.625h7.96254v2.68942h-5.06267v6.14062h4.79393Z" transform="translate(-1.0126 -0.76018)"/>
      <path class="cls-2" d="M292.06724,190.68583v9.84968h-2.89987v-21.625h4.26533c3.27334,0,5.07057,1.35262,5.07057,5.11207v.89318c0,3.15973-1.22417,4.15665-2.20133,4.52914,1.30716.55725,1.99385,1.51761,1.99385,4.43428a58.68125,58.68125,0,0,0,.20452,6.65637h-2.81a48.15358,48.15358,0,0,1-.22626-6.45876c0-2.70523-.36261-3.39092-2.38511-3.39092Zm0-2.41772h1.03743c1.88615,0,2.48885-.88626,2.48885-3.22v-.8339c0-1.80019-.42683-2.887-2.43352-2.887h-1.09276Z" transform="translate(-1.0126 -0.76018)"/>
      <path class="cls-2" d="M311.77549,192.079c0-3.797.05138-8.24611.11659-10.65493h-.0326c-.51477,3.70117-1.902,12.7792-2.93149,19.11149h-2.76945c-.77363-5.59423-2.19047-15.21963-2.69535-19.13421H303.398c.06521,2.51552.17192,7.41319.17192,11.1272v8.007H300.92v-21.625h4.31275c.98606,5.87286,2.08573,12.77722,2.3772,15.69191h.03162c.3468-2.91173,1.72115-10.15893,2.721-15.69191h4.18629v21.625h-2.77341Z" transform="translate(-1.0126 -0.76018)"/>
      <path class="cls-2" d="M320.49388,178.91047v21.625H317.594v-21.625Z" transform="translate(-1.0126 -0.76018)"/>
      <path class="cls-2" d="M325.57433,181.59989h-3.48379v-2.68942H331.961v2.68942h-3.48676v18.93562h-2.89988Z" transform="translate(-1.0126 -0.76018)"/>
      <path class="cls-2" d="M336.35573,181.59989h-3.4838v-2.68942h9.87043v2.68942H339.2556v18.93562h-2.89987Z" transform="translate(-1.0126 -0.76018)"/>
      <path class="cls-2" d="M347.17072,178.91047v21.625h-2.89987v-21.625Z" transform="translate(-1.0126 -0.76018)"/>
      <path class="cls-2" d="M350.2267,200.53551v-21.625h3.39191c.99,3.45218,3.75056,14.40549,4.03116,15.81245h.04249c-.14228-2.76451-.162-5.80765-.162-9.34974v-6.46271h2.69634v21.625h-3.2694c-.87934-3.20419-3.85134-15.0823-4.14775-16.33314h-.0326c.15215,2.61235.168,5.76417.168,9.659v6.67415Z" transform="translate(-1.0126 -0.76018)"/>
      <path class="cls-2" d="M372.572,200.53551h-2.27544a15.69249,15.69249,0,0,1-.165-1.72807,3.13857,3.13857,0,0,1-3.221,2.03238c-3.10242,0-4.10922-2.26358-4.10922-5.84025V184.564c0-3.53913,1.399-5.95783,4.9194-5.95783,4.21692,0,4.78306,3.054,4.78306,5.55471v.63827H369.603v-.75486c0-1.2963-.17093-2.79415-1.89208-2.79415-1.3368,0-1.95432.88626-1.95432,2.92062v11.09756c0,1.899.52464,2.99571,1.88615,2.99571,1.67274,0,2.01954-1.47216,2.01954-3.9205v-3.27928h-2.10649v-2.50762H372.572Z" transform="translate(-1.0126 -0.76018)"/>
      <path class="cls-2" d="M382.25669,194.28028l-.87342,6.25523H378.438l3.51245-21.625h4.10823l3.65176,21.625h-3.03325l-.96037-6.25523Zm3.10637-2.66669c-.60468-4.131-1.10561-7.69775-1.33582-9.97516h-.11066c-.087,1.736-.78944,6.46468-1.28444,9.97516Z" transform="translate(-1.0126 -0.76018)"/>
      <path class="cls-2" d="M391.40783,200.53551v-21.625h3.39191c.99,3.45218,3.75057,14.40549,4.03117,15.81245h.04248c-.14227-2.76451-.162-5.80765-.162-9.34974v-6.46271h2.69633v21.625H398.1383c-.87935-3.20419-3.85135-15.0823-4.14776-16.33314h-.0326c.15216,2.61235.168,5.76417.168,9.659v6.67415Z" transform="translate(-1.0126 -0.76018)"/>
      <path class="cls-2" d="M404.45577,178.91047h4.32955c4.623,0,5.51815,2.59161,5.51815,6.361v8.39727c0,3.31188-.5444,6.86682-5.58237,6.86682h-4.26533Zm2.89987,19.14014h1.16785c2.37227,0,2.82478-1.44055,2.82478-3.92841v-9.11953c0-2.20331-.39224-3.58458-2.82774-3.58458h-1.16489Z" transform="translate(-1.0126 -0.76018)"/>
      <path class="cls-2" d="M421.193,178.91047h2.89988V197.937H429.531l-.27171,2.59852H421.193Z" transform="translate(-1.0126 -0.76018)"/>
      <path class="cls-2" d="M433.83784,178.91047v21.625H430.938v-21.625Z" transform="translate(-1.0126 -0.76018)"/>
      <path class="cls-2" d="M445.81969,194.1795v.79734c0,2.58963-.44659,5.863-4.74156,5.863-3.89482,0-4.65659-2.5669-4.65659-5.81456V184.07985c0-3.38895,1.50279-5.47369,4.702-5.47369,3.876,0,4.59829,2.642,4.59829,5.56854v.91689h-2.91864v-1.21527c0-1.55319-.30827-2.62619-1.69843-2.62619-1.34273,0-1.72806.99593-1.72806,2.65583v11.34655c0,1.73.36261,2.96606,1.77944,2.96606,1.407,0,1.72115-1.16785,1.72115-2.95618V194.1795Z" transform="translate(-1.0126 -0.76018)"/>
      <path class="cls-2" d="M455.57353,190.4072H450.7796v7.46161h5.49049l-.37644,2.6667h-8.01392v-21.625h7.96255v2.68942H450.7796v6.14062h4.79393Z" transform="translate(-1.0126 -0.76018)"/>
      <path class="cls-2" d="M457.97148,200.53551v-21.625h3.39191c.99,3.45218,3.75057,14.40549,4.03117,15.81245h.04248c-.14227-2.76451-.162-5.80765-.162-9.34974v-6.46271h2.69633v21.625H464.702c-.87935-3.20419-3.85135-15.0823-4.14775-16.33314h-.03261c.15216,2.61235.168,5.76417.168,9.659v6.67415Z" transform="translate(-1.0126 -0.76018)"/>
      <path class="cls-2" d="M472.90162,194.28621v1.30223c0,1.78932.575,2.76648,1.94741,2.76648,1.404,0,1.85651-1.18563,1.85651-2.99571,0-2.41079-.52366-3.24272-2.82577-5.04884-2.32088-1.82588-3.53518-2.96607-3.53518-6.16136,0-2.804.84477-5.57644,4.53309-5.56656,3.66658.00988,4.38192,2.559,4.38192,5.07452v1.09079h-2.87715V183.734c0-1.62729-.29443-2.644-1.55911-2.644-1.25184,0-1.57887,1.09474-1.57887,2.638,0,1.731.33593,2.48391,2.27247,3.9215,3.137,2.34064,4.11119,3.67844,4.11119,7.28475,0,3.057-.987,5.90546-4.86012,5.90546-3.78614,0-4.76626-2.43846-4.76626-5.28695v-1.26666Z" transform="translate(-1.0126 -0.76018)"/>
      <path class="cls-2" d="M484.69871,178.91047v21.625h-2.89987v-21.625Z" transform="translate(-1.0126 -0.76018)"/>
      <path class="cls-2" d="M487.75568,200.53551v-21.625h3.39191c.99,3.45218,3.75056,14.40549,4.03117,15.81245h.04248c-.14228-2.76451-.162-5.80765-.162-9.34974v-6.46271h2.69634v21.625h-3.26939c-.87935-3.20419-3.85135-15.0823-4.14875-16.33314h-.03161c.15215,2.61235.168,5.76417.168,9.659v6.67415Z" transform="translate(-1.0126 -0.76018)"/>
      <path class="cls-2" d="M510.1,200.53551h-2.27544a15.69249,15.69249,0,0,1-.165-1.72807,3.13857,3.13857,0,0,1-3.221,2.03238c-3.10242,0-4.10922-2.26358-4.10922-5.84025V184.564c0-3.53913,1.399-5.95783,4.91941-5.95783,4.21691,0,4.78306,3.054,4.78306,5.55471v.63827H507.131v-.75486c0-1.2963-.17093-2.79415-1.89208-2.79415-1.33681,0-1.95433.88626-1.95433,2.92062v11.09756c0,1.899.52465,2.99571,1.88615,2.99571,1.67274,0,2.01954-1.47216,2.01954-3.9205v-3.27928h-2.10648v-2.50762H510.1Z" transform="translate(-1.0126 -0.76018)"/>
    </g>
    <g>
      <path class="cls-3" d="M122.81284,77.63949c-17.516-25.62783,28.4358-72.95326,116.1535-34.31909,39.7961,18.01833,108.18658,63.30217,144.41491,25.70832,4.29629-4.4829,8.606-11.2837,7.6104-17.41471,6.95074,14.16946-18.737,66.14471-103.4217,33.2913-44.68469-17.2141-83.80534-49.3059-129.90533-42.60615C133.54717,45.65023,117.199,59.888,122.81284,77.63949Z" transform="translate(-1.0126 -0.76018)"/>
      <path class="cls-4" d="M306.17849,66.31525c24.17437,4.63075,44.75713-1.70087,55.63722-10.55548,15.90908-12.984,9.64513-31.55078-1.93994-37.669-12.025-6.49258-26.09881,3.81012-24.09747,15.538a16.68463,16.68463,0,0,0,15.76839,13.28564,16.33422,16.33422,0,0,1-13.2451-.333c-15.77464-6.92421-16.19375-27.811-2.81541-39.04762,11.64528-9.90177,31.0655-9.65317,44.10075,5.45972,13.73187,16.46919,12.2176,41.78433-9.20725,55.14688C353.92511,78.80143,325.368,80.25549,306.17849,66.31525Z" transform="translate(-1.0126 -0.76018)"/>
      <path class="cls-5" d="M289.51466,91.80806C266.941,102.04131,218.04287,74.62675,191.47518,69.1092c-54.08808-12.1705-64.43579,26.52895-49.55659,42.35934-19.28966-7.63127-20.74849-44.60541,11.06848-57.20426C203.52734,33.74592,259.47755,91.28015,289.51466,91.80806Z" transform="translate(-1.0126 -0.76018)"/>
    </g>
  </g>
</svg>
