<svg id="Layer_1" data-name="Layer 1" xmlns="http://www.w3.org/2000/svg" xmlns:xlink="http://www.w3.org/1999/xlink" width="7.2in" height="1.57in" viewBox="0 0 518.4 113.04">
  <defs>
    <style>
      .cls-1 {
        fill: url(#New_Gradient_Swatch_2);
      }

      .cls-2 {
        fill: url(#New_Gradient_Swatch_2-2);
      }

      .cls-3 {
        fill: url(#New_Gradient_Swatch_2-3);
      }

      .cls-4 {
        fill: #08274d;
      }
    </style>
    <linearGradient id="New_Gradient_Swatch_2" data-name="New Gradient Swatch 2" x1="0.8084" y1="62.5618" x2="273.7522" y2="62.5618" gradientUnits="userSpaceOnUse">
      <stop offset="0" stop-color="#30a4e1"/>
      <stop offset="0.12881" stop-color="#2e9bd9"/>
      <stop offset="0.3429" stop-color="#2881c5"/>
      <stop offset="0.58427" stop-color="#1f5da7"/>
      <stop offset="0.99864" stop-color="#08274d"/>
    </linearGradient>
    <linearGradient id="New_Gradient_Swatch_2-2" x1="187.85879" y1="39.01265" x2="270.156" y2="39.01265" xlink:href="#New_Gradient_Swatch_2"/>
    <linearGradient id="New_Gradient_Swatch_2-3" x1="9.79711" y1="81.06165" x2="171.19496" y2="81.06165" xlink:href="#New_Gradient_Swatch_2"/>
  </defs>
  <g>
    <g>
      <path class="cls-1" d="M4.49315,78.04514C-13.02291,52.4173,32.92894,5.09187,120.64664,43.726c39.7961,18.01833,108.18658,63.30217,144.41491,25.70832,4.29629-4.4829,8.606-11.2837,7.6104-17.41471,6.95074,14.16946-18.737,66.14471-103.4217,33.2913C124.56556,68.09686,85.44492,36.00505,39.34492,42.7048,15.22748,46.05587-1.12068,60.29359,4.49315,78.04514Z"/>
      <path class="cls-2" d="M187.85879,66.7209C212.03317,71.35164,232.61592,65.02,243.496,56.16542c15.90908-12.984,9.64513-31.55078-1.93993-37.669-12.025-6.49259-26.09882,3.81012-24.09747,15.538A16.6846,16.6846,0,0,0,233.227,47.32005a16.33422,16.33422,0,0,1-13.2451-.333c-15.77464-6.92421-16.19375-27.811-2.81541-39.04761C228.81176-1.9623,248.232-1.7137,261.26723,13.3992c13.73187,16.46918,12.2176,41.78433-9.20724,55.14687C235.60541,79.20707,207.04829,80.66113,187.85879,66.7209Z"/>
      <path class="cls-3" d="M171.195,92.2137C148.6213,102.447,99.72318,75.03239,73.15548,69.51484,19.0674,57.34434,8.71969,96.04379,23.59889,111.87418,4.30923,104.24291,2.8504,67.26878,34.66737,54.66993,85.20764,34.15156,141.15785,91.68579,171.195,92.2137Z"/>
    </g>
    <g>
      <g>
        <path class="cls-4" d="M323.18849,43.59626c0-4.92969.1572-12.84969.3144-17.41288h-.3144c-1.10216,7.81491-2.30853,17.62307-3.7242,26.74945H308.60784c-1.25936-10.54294-2.09834-17.41377-3.2005-26.54014h-.41861c.26141,4.24879.5237,10.85733.5237,17.04638v9.49376H292.925V16.74173H312.96c.42037,4.14369,1.31234,13.58446,1.67885,18.51592h.41949c.99706-7.23822,1.36357-12.53618,2.30853-18.51592h19.66842v36.1911H323.18849Z"/>
        <path class="cls-4" d="M355.07781,47.26836l-1.20637,5.66447h-13.951L350.043,16.74173H369.292l10.43783,36.1911h-15.001l-1.20637-5.66447Zm6.45134-9.54675c-.4716-2.88433-1.52077-8.33861-2.20255-12.16791h-.3144c-.73477,4.3009-1.46954,8.70689-2.15133,12.16791Z"/>
        <path class="cls-4" d="M396.40967,40.13435V52.93283H382.45782V16.74173h20.92689c9.49376,0,13.27007,4.82548,13.27007,10.07133a8.71653,8.71653,0,0,1-6.13606,8.60179c3.67122,1.10039,5.55937,4.66828,5.55937,10.06957v.892a47.84238,47.84238,0,0,0,.36651,6.55644H402.54573c-.57669-1.52077-.73477-4.03861-.73477-7.34243v-1.784c0-2.09834-.4716-3.6721-3.30383-3.6721Zm0-8.60179h2.41274c2.67415,0,3.61911-1.36356,3.61911-3.14663,0-1.836-1.04917-3.04241-3.6721-3.04241h-2.35975Z"/>
        <path class="cls-4" d="M435.433,16.74173v36.1911H420.90446V16.74173Z"/>
        <path class="cls-4" d="M441.20256,52.93283V16.74173h16.785c2.77924,8.34038,4.30089,14.05694,5.71656,19.45912h.31529c-.36739-4.09071-.63057-10.437-.63057-15.89212v-3.567h13.32306v36.1911H460.66168c-1.94026-5.92676-4.56231-14.58065-6.29326-20.4032h-.21019c.4716,4.24879.36739,9.91325.36739,16.1023v4.3009Z"/>
        <path class="cls-4" d="M511.5394,39.50556H496.27608V43.387h17.41377l-1.52077,9.54587H482.48143V16.74173h29.68765v9.54675h-15.893v3.67121H511.5394Z"/>
      </g>
      <path class="cls-4" d="M321.89724,82.02259H306.73552v3.85556h17.29785l-1.51065,9.48233h-29.49V59.41028h29.49v9.4832h-15.7872v3.64678h15.16172Z"/>
      <path class="cls-4" d="M327.68015,95.36048V59.41028h16.67236c2.76162,8.28486,4.27315,13.96338,5.6794,19.32959h.3123c-.36406-4.06348-.62461-10.36748-.62461-15.78633V59.41028h13.2335v35.9502H347.00974c-1.92734-5.88731-4.53281-14.4836-6.25137-20.26739h-.20879c.46846,4.22051.36494,9.84727.36494,15.99512v4.27227Z"/>
      <path class="cls-4" d="M397.54881,82.02259H382.38709v3.85556h17.29785l-1.51064,9.48233h-29.49V59.41028h29.49v9.4832H382.38709v3.64678h15.16172Z"/>
      <path class="cls-4" d="M417.19071,82.6472V95.36048h-13.859V59.41028H424.1202c9.43057,0,13.18174,4.79336,13.18174,10.0043a8.65813,8.65813,0,0,1-6.0961,8.54453c3.64766,1.09307,5.52325,4.63721,5.52325,10.00254v.886a47.37082,47.37082,0,0,0,.36494,6.51279H423.2868c-.57285-1.51065-.729-4.01172-.729-7.29356V86.29485c0-2.08437-.46933-3.64765-3.28271-3.64765Zm0-8.54453h2.39668c2.65722,0,3.595-1.3545,3.595-3.12569,0-1.82383-1.04131-3.02217-3.64678-3.02217h-2.34492Z"/>
      <path class="cls-4" d="M477.5244,95.36048H468.772a28.73146,28.73146,0,0,1-.72988-3.33447c-1.92735,2.60459-5.21006,4.27226-10.83682,4.27226-12.03516,0-16.93291-9.11738-16.93291-18.60058,0-11.40968,6.51279-19.22433,19.48574-19.22433,13.44229,0,17.50577,7.71026,17.819,12.24307H463.50927c-.31231-1.66679-1.04219-3.28271-3.69942-3.28271-3.90732,0-4.74072,4.53369-4.74072,9.8999,0,5.2627.8334,10.00342,4.6372,10.00342,3.438,0,4.16788-2.86514,4.16788-4.89775v-.1044h-5.1583V74.10267H477.5244Z"/>
      <path class="cls-4" d="M490.29032,95.36048V83.16829a2.56,2.56,0,0,0-.46846-1.6668L477.57792,59.41028h16.203c1.615,4.58545,2.97041,8.75332,4.3249,12.92207,1.2501-3.96,3.23008-9.11826,4.53281-12.92207H517.5916L505.0871,81.65765a3.53128,3.53128,0,0,0-.36494,1.61591V95.36048Z"/>
    </g>
  </g>
</svg>
