<?xml version="1.0" encoding="utf-8"?>
<!-- Generator: Adobe Illustrator 25.1.0, SVG Export Plug-In . SVG Version: 6.00 Build 0)  -->
<svg version="1.1" id="Layer_1" xmlns="http://www.w3.org/2000/svg" xmlns:xlink="http://www.w3.org/1999/xlink" x="0px" y="0px"
	 viewBox="0 0 873.8 113" style="enable-background:new 0 0 873.8 113;" xml:space="preserve">
<style type="text/css">
	.st0{fill:#FFFFFF;}
</style>
<g>
	<g>
		<path class="st0" d="M4.5,78C-13,52.4,32.9,5.1,120.6,43.7c39.8,18,108.2,63.3,144.4,25.7c4.3-4.5,8.6-11.3,7.6-17.4
			c7,14.2-18.7,66.1-103.4,33.3C124.6,68.1,85.4,36,39.3,42.7C15.2,46.1-1.1,60.3,4.5,78z"/>
		<path class="st0" d="M187.9,66.7c24.2,4.6,44.8-1.7,55.6-10.6c15.9-13,9.6-31.6-1.9-37.7c-12-6.5-26.1,3.8-24.1,15.5
			c1.6,7.5,8.1,13,15.8,13.3C229,49.1,224.2,49,220,47c-15.8-6.9-16.2-27.8-2.8-39c11.6-9.9,31.1-9.7,44.1,5.5
			c13.7,16.5,12.2,41.8-9.2,55.1C235.6,79.2,207,80.7,187.9,66.7z"/>
		<path class="st0" d="M171.2,92.2c-22.6,10.2-71.5-17.2-98-22.7C19.1,57.3,8.7,96,23.6,111.9C4.3,104.2,2.9,67.3,34.7,54.7
			C85.2,34.2,141.2,91.7,171.2,92.2z"/>
	</g>
	<g>
		<g>
			<path class="st0" d="M349.3,66.6c0-5.4,0.2-14.2,0.3-19.2h-0.3c-1.2,8.6-2.5,19.5-4.1,29.5h-12c-1.4-11.6-2.3-19.2-3.5-29.3h-0.5
				c0.3,4.7,0.6,12,0.6,18.8v10.5h-13.9V37H338c0.5,4.6,1.4,15,1.9,20.4h0.5c1.1-8,1.5-13.8,2.5-20.4h21.7v40h-15.3V66.6z"/>
			<path class="st0" d="M384.6,70.7l-1.3,6.3h-15.4L379,37h21.3l11.5,40h-16.6l-1.3-6.3H384.6z M391.7,60.1
				c-0.5-3.2-1.7-9.2-2.4-13.4h-0.3c-0.8,4.7-1.6,9.6-2.4,13.4H391.7z"/>
			<path class="st0" d="M430.2,62.8v14.1h-15.4V37h23.1c10.5,0,14.7,5.3,14.7,11.1c0.1,4.3-2.6,8.2-6.8,9.5
				c4.1,1.2,6.1,5.2,6.1,11.1v1c0,2.4,0.1,4.8,0.4,7.2H437c-0.6-1.7-0.8-4.5-0.8-8.1v-2c0-2.3-0.5-4.1-3.6-4.1L430.2,62.8z
				 M430.2,53.3h2.7c3,0,4-1.5,4-3.5c0-2-1.2-3.4-4.1-3.4h-2.6L430.2,53.3z"/>
			<path class="st0" d="M473.3,37v40h-16V37H473.3z"/>
			<path class="st0" d="M479.7,76.9V37h18.5c3.1,9.2,4.7,15.5,6.3,21.5h0.3c-0.4-4.5-0.7-11.5-0.7-17.5V37h14.7v40h-17.7
				c-2.1-6.5-5-16.1-6.9-22.5H494c0.5,4.7,0.4,10.9,0.4,17.8v4.7H479.7z"/>
			<path class="st0" d="M557.3,62.1h-16.9v4.3h19.2L558,76.9h-32.8V37H558v10.5h-17.5v4.1h16.9V62.1z"/>
		</g>
		<g>
			<path class="st0" d="M607.4,61.2h-16.7v4.3h19.1l-1.7,10.5h-32.6V36.2h32.6v10.5h-17.4v4h16.7V61.2z"/>
			<path class="st0" d="M613.8,75.9V36.2h18.4c3,9.1,4.7,15.4,6.3,21.3h0.3c-0.4-4.5-0.7-11.4-0.7-17.4v-3.9h14.6v39.7h-17.6
				c-2.1-6.5-5-16-6.9-22.4H628c0.5,4.7,0.4,10.9,0.4,17.7v4.7L613.8,75.9z"/>
			<path class="st0" d="M691,61.2h-16.7v4.3h19.1l-1.7,10.5h-32.6V36.2h32.6v10.5h-17.4v4H691V61.2z"/>
			<path class="st0" d="M712.6,61.9v14h-15.3V36.2h23c10.4,0,14.6,5.3,14.6,11c0.1,4.3-2.6,8.2-6.7,9.4c4,1.2,6.1,5.1,6.1,11v1
				c0,2.4,0.1,4.8,0.4,7.2h-15.2c-0.6-1.7-0.8-4.4-0.8-8.1v-2c0-2.3-0.5-4-3.6-4H712.6z M712.6,52.4h2.6c2.9,0,4-1.5,4-3.5
				c0-2-1.1-3.3-4-3.3h-2.6L712.6,52.4z"/>
			<path class="st0" d="M779.3,75.9h-9.7c-0.3-1.2-0.6-2.4-0.8-3.7c-2.1,2.9-5.8,4.7-12,4.7c-13.3,0-18.7-10.1-18.7-20.5
				c0-12.6,7.2-21.2,21.5-21.2c14.8,0,19.3,8.5,19.7,13.5h-15.5c-0.3-1.8-1.2-3.6-4.1-3.6c-4.3,0-5.2,5-5.2,10.9
				c0,5.8,0.9,11,5.1,11c3.8,0,4.6-3.2,4.6-5.4v-0.1h-5.7v-9.1h20.8V75.9z"/>
			<path class="st0" d="M793.4,75.9V62.4c0-0.7-0.1-1.3-0.5-1.8l-13.5-24.4h17.9c1.8,5.1,3.3,9.7,4.8,14.3c1.4-4.4,3.6-10.1,5-14.3
				h16.5l-13.8,24.6c-0.3,0.6-0.4,1.2-0.4,1.8v13.3H793.4z"/>
		</g>
	</g>
</g>
</svg>
