<svg id="Layer_1" data-name="Layer 1" xmlns="http://www.w3.org/2000/svg" width="169.38089" height="24.84198" viewBox="0 0 169.38089 24.84198">
  <defs>
    <style>
      .cls-1 {
        fill: #fff;
      }
    </style>
  </defs>
  <g>
    <polygon class="cls-1" points="0 8.811 0 22.302 10.031 22.302 10.031 19.183 3.409 19.183 3.409 16.805 9.359 16.805 9.359 13.686 3.409 13.686 3.409 11.938 9.804 11.938 9.804 8.811 0 8.811"/>
    <polygon class="cls-1" points="18.676 15.767 14.626 8.811 11.498 8.811 11.498 22.303 14.737 22.303 14.737 15.529 18.716 22.303 21.916 22.303 21.916 8.811 18.676 8.811 18.676 15.767"/>
    <polygon class="cls-1" points="27.269 16.805 33.219 16.805 33.219 13.687 27.269 13.687 27.269 11.938 33.663 11.938 33.663 8.811 23.859 8.811 23.859 22.303 33.89 22.303 33.89 19.184 27.269 19.184 27.269 16.805"/>
    <g>
      <path class="cls-1" d="M44.351,17.08008a5.467,5.467,0,0,0-.49-.482,3.68341,3.68341,0,0,0,1.558-1.049,3.94338,3.94338,0,0,0,.907-2.65,4.25953,4.25953,0,0,0-.59-2.22705,3.27128,3.27128,0,0,0-1.629-1.407,8.56863,8.56863,0,0,0-2.946-.371H35.617v13.492h3.409v-5.209a3.118,3.118,0,0,1,1.005.11,1.32747,1.32747,0,0,1,.517.381,16.132,16.132,0,0,1,1.211,1.768l1.88,2.95h4.034l-1.903-3.201a14.63038,14.63038,0,0,0-1.419-2.105m-5.325-5.059h1.359c1.234,0,1.577.023,1.658.035a.94174.94174,0,0,1,.597.312,1.04718,1.04718,0,0,1,.203.693,1.21176,1.21176,0,0,1-.16.66.78562.78562,0,0,1-.416.325,7.91619,7.91619,0,0,1-1.979.123H39.026Z" transform="translate(-0.27585 -0.08307)"/>
      <path class="cls-1" d="M53.50805,17.79858h2.74v.824a4.80609,4.80609,0,0,1-.982.533,3.44676,3.44676,0,0,1-1.314.273,2.55537,2.55537,0,0,1-2.069-.93,4.61142,4.61142,0,0,1-.818-3.004,4.10654,4.10654,0,0,1,.798-2.769,2.65707,2.65707,0,0,1,2.113-.875,2.22937,2.22937,0,0,1,1.416.427,2.12992,2.12992,0,0,1,.761,1.181l.125.457,3.344-.659-.104-.50195a4.95085,4.95085,0,0,0-1.78-2.991,5.96958,5.96958,0,0,0-3.762-1.082,6.39716,6.39716,0,0,0-3.079.682,5.88417,5.88417,0,0,0-2.483,2.538,8.041,8.041,0,0,0-.831,3.696,8.47489,8.47489,0,0,0,.74,3.533,5.6534,5.6534,0,0,0,2.281,2.575,6.75837,6.75837,0,0,0,3.501.892,8.13677,8.13677,0,0,0,3.082-.62,6.9687,6.9687,0,0,0,2.35-1.463l.145-.149v-5.685h-6.174Z" transform="translate(-0.27585 -0.08307)"/>
      <polygon class="cls-1" points="68.333 8.811 65.896 13.213 63.408 8.811 59.408 8.811 64.139 16.685 64.139 22.303 67.54 22.303 67.54 16.702 72.289 8.811 68.333 8.811"/>
      <path class="cls-1" d="M.58445,5.91528a1.213,1.213,0,0,0,.455.313,2.30412,2.30412,0,0,0,.846.12,2.1349,2.1349,0,0,0,.749-.11,1.19737,1.19737,0,0,0,.458-.29706.99448.99448,0,0,0,.235-.456,4.5644,4.5644,0,0,0,.064-.926v-1.911h-.786v2.012a3.96894,3.96894,0,0,1-.034.618.50381.50381,0,0,1-.205.314.83052.83052,0,0,1-.505.12805.88323.88323,0,0,1-.519-.135.58532.58532,0,0,1-.24-.359,3.75089,3.75089,0,0,1-.029-.607v-1.971h-.786v1.94a4.10963,4.10963,0,0,0,.077.924.96994.96994,0,0,0,.22.40295" transform="translate(-0.27585 -0.08307)"/>
      <rect class="cls-1" x="4.325" y="5.50598" width="0.746" height="0.69702"/>
      <path class="cls-1" d="M8.49105,5.58014a.91873.91873,0,0,1-.572.15.88542.88542,0,0,1-.57-.169.84857.84857,0,0,1-.28-.528l-.765.069a1.35476,1.35476,0,0,0,.473.93,1.76889,1.76889,0,0,0,1.134.318,2.35715,2.35715,0,0,0,.847-.132,1.10752,1.10752,0,0,0,.526-.40594,1.079,1.079,0,0,0,.03-1.165,1.06819,1.06819,0,0,0-.43-.37,4.04168,4.04168,0,0,0-.848-.262,2.16652,2.16652,0,0,1-.723-.243.27318.27318,0,0,1-.117-.221.26113.26113,0,0,1,.125-.22595.9513.9513,0,0,1,.537-.13105.822.822,0,0,1,.497.12305.60642.60642,0,0,1,.217.40295l.786-.033a1.02959,1.02959,0,0,0-.389-.801,1.72651,1.72651,0,0,0-1.104-.3,2.07926,2.07926,0,0,0-.766.126,1.04887,1.04887,0,0,0-.486.368.90024.90024,0,0,0-.168.52106.92068.92068,0,0,0,.358.732,2.21006,2.21006,0,0,0,.887.359q.492.11546.63.159a.657.657,0,0,1,.282.158.31543.31543,0,0,1,.081.22.43759.43759,0,0,1-.192.351" transform="translate(-0.27585 -0.08307)"/>
      <rect class="cls-1" x="10.236" y="5.50598" width="0.746" height="0.69702"/>
      <path class="cls-1" d="M16.48375,6.20911a1.39845,1.39845,0,0,0,.552-.29,1.582,1.582,0,0,0,.417-.643,2.2394,2.2394,0,0,0,.12-.774,2.51883,2.51883,0,0,0-.128-.86,1.583,1.583,0,0,0-.371-.59,1.33336,1.33336,0,0,0-.588-.335,3.00281,3.00281,0,0,0-.74-.069h-1.437v3.638h1.479a2.54693,2.54693,0,0,0,.696-.077m-1.389-.536v-2.41h.353a3.80934,3.80934,0,0,1,.645.035.7632.7632,0,0,1,.364.17205.82548.82548,0,0,1,.224.351,2.08032,2.08032,0,0,1,.079.648,2.26774,2.26774,0,0,1-.079.667.76531.76531,0,0,1-.206.351.73623.73623,0,0,1-.318.151,2.224,2.224,0,0,1-.475.035Z" transform="translate(-0.27585 -0.08307)"/>
      <polygon class="cls-1" points="21.31 5.59 19.135 5.59 19.135 4.6 21.09 4.6 21.09 3.987 19.135 3.987 19.135 3.18 21.236 3.18 21.236 2.565 18.349 2.565 18.349 6.203 21.31 6.203 21.31 5.59"/>
      <path class="cls-1" d="M25.16055,4.68964a1.014,1.014,0,0,0,.33-.359,1.12069,1.12069,0,0,0,.131-.564,1.08117,1.08117,0,0,0-.226-.708,1.019,1.019,0,0,0-.56-.35595,4.91933,4.91933,0,0,0-.935-.055h-1.262v3.639h.787v-1.373h.512a4.76279,4.76279,0,0,0,.815-.052,1.19749,1.19749,0,0,0,.408-.172m-.684-.451a2.16886,2.16886,0,0,1-.621.057h-.43v-1.032h.379a3.96239,3.96239,0,0,1,.566.025.55225.55225,0,0,1,.316.161.452.452,0,0,1,.124.32794.46591.46591,0,0,1-.088.282.50843.50843,0,0,1-.246.179" transform="translate(-0.27585 -0.08307)"/>
      <path class="cls-1" d="M27.00805,5.45966h1.557l.34.826h.855l-1.559-3.638h-.831l-1.517,3.638h.834Zm.768-1.963.536,1.35h-1.062Z" transform="translate(-0.27585 -0.08307)"/>
      <path class="cls-1" d="M31.35145,4.76727h.159a1.39,1.39,0,0,1,.396.041.60679.60679,0,0,1,.236.151,5.11049,5.11049,0,0,1,.415.535l.568.792h.94l-.475-.71a4.0848,4.0848,0,0,0-.448-.59,1.83751,1.83751,0,0,0-.421-.306,1.268,1.268,0,0,0,.77-.336.93286.93286,0,0,0,.258-.676.99955.99955,0,0,0-.17-.574.88573.88573,0,0,0-.453-.349,3.03609,3.03609,0,0,0-.907-.097h-1.654v3.638h.786Zm0-1.504h.614q.477,0,.573.013a.4906.4906,0,0,1,.296.142.41945.41945,0,0,1,.105.297.446.446,0,0,1-.08.273.41981.41981,0,0,1-.22.154,3.20589,3.20589,0,0,1-.706.044h-.582Z" transform="translate(-0.27585 -0.08307)"/>
      <polygon class="cls-1" points="35.477 6.203 36.263 6.203 36.263 3.18 37.416 3.18 37.416 2.565 34.322 2.565 34.322 3.18 35.477 3.18 35.477 6.203"/>
      <polygon class="cls-1" points="39.029 3.339 39.799 6.203 40.556 6.203 41.329 3.339 41.329 6.203 42.059 6.203 42.059 2.565 40.88 2.565 40.182 5.047 39.475 2.565 38.299 2.565 38.299 6.203 39.029 6.203 39.029 3.339"/>
      <polygon class="cls-1" points="46.187 5.59 44.012 5.59 44.012 4.6 45.967 4.6 45.967 3.987 44.012 3.987 44.012 3.18 46.113 3.18 46.113 2.565 43.226 2.565 43.226 6.203 46.187 6.203 46.187 5.59"/>
      <polygon class="cls-1" points="47.978 3.831 49.548 6.203 50.335 6.203 50.335 2.565 49.605 2.565 49.605 4.995 48.012 2.565 47.247 2.565 47.247 6.203 47.978 6.203 47.978 3.831"/>
      <polygon class="cls-1" points="52.429 6.203 53.215 6.203 53.215 3.18 54.368 3.18 54.368 2.565 51.274 2.565 51.274 3.18 52.429 3.18 52.429 6.203"/>
      <path class="cls-1" d="M59.16844,6.34821a1.884,1.884,0,0,0,1.37-.497,1.83324,1.83324,0,0,0,.513-1.379,1.83747,1.83747,0,0,0-.517-1.388,1.89828,1.89828,0,0,0-1.376-.498,2.27464,2.27464,0,0,0-.84.144,1.52239,1.52239,0,0,0-.503.327,1.70421,1.70421,0,0,0-.362.499,2.17808,2.17808,0,0,0-.178.93305,1.80639,1.80639,0,0,0,.512,1.364,1.90419,1.90419,0,0,0,1.381.49506m-.786-2.82306a1.14016,1.14016,0,0,1,1.563-.004,1.30516,1.30516,0,0,1,.293.933,1.32917,1.32917,0,0,1-.301.95,1.101,1.101,0,0,1-1.547-.003,1.30031,1.30031,0,0,1-.305-.937,1.31613,1.31613,0,0,1,.297-.939" transform="translate(-0.27585 -0.08307)"/>
      <polygon class="cls-1" points="62.566 4.657 64.191 4.657 64.191 4.042 62.566 4.042 62.566 3.181 64.449 3.181 64.449 2.565 61.78 2.565 61.78 6.203 62.566 6.203 62.566 4.657"/>
      <rect class="cls-1" x="77.693" width="0.669" height="24.84198"/>
      <polygon class="cls-1" points="83.766 2.578 88.796 2.578 88.796 3.394 84.735 3.394 84.735 5.71 88.52 5.71 88.52 6.526 84.735 6.526 84.735 9.046 88.826 9.046 88.826 9.862 83.766 9.862 83.766 2.578"/>
      <path class="cls-1" d="M90.06945,4.6709h.816V5.507h.021a1.83693,1.83693,0,0,1,1.713-.95905c1.388,0,1.816.796,1.816,1.929V9.945h-.867V6.3739a.994.994,0,0,0-1.071-1.061,1.48342,1.48342,0,0,0-1.561,1.653V9.945h-.867Z" transform="translate(-0.27585 -0.08307)"/>
      <path class="cls-1" d="M100.17826,8.27185a2.126,2.126,0,0,1-2.254,1.796c-1.683,0-2.479-1.163-2.53-2.775a2.53819,2.53819,0,0,1,2.479-2.744c1.866,0,2.438,1.744,2.387,3.019h-3.948a1.55409,1.55409,0,0,0,1.642,1.735,1.2698,1.2698,0,0,0,1.367-1.03095Zm-.836-1.46905a1.51748,1.51748,0,0,0-1.52-1.489,1.50174,1.50174,0,0,0-1.51,1.489Z" transform="translate(-0.27585 -0.08307)"/>
      <path class="cls-1" d="M101.06505,4.6709h.816V5.783h.02a1.91885,1.91885,0,0,1,1.939-1.23505v.919c-1.398,0-1.908.795-1.908,2.132V9.945h-.867Z" transform="translate(-0.27585 -0.08307)"/>
      <path class="cls-1" d="M108.695,9.49573c0,1.714-.786,2.592-2.449,2.592-.989,0-2.132-.398-2.183-1.551h.867c.041.632.796.857,1.368.857,1.132,0,1.581-.816,1.581-2v-.347h-.021a1.75486,1.75486,0,0,1-1.642.96,2.38725,2.38725,0,0,1-2.357-2.673,2.489,2.489,0,0,1,2.439-2.785,1.71951,1.71951,0,0,1,1.57.877h.011v-.755h.816Zm-.857-2.295c0-.928-.408-1.887-1.5-1.887-1.112,0-1.561.908-1.561,1.917,0,.95.347,2.01,1.49,2.01,1.142,0,1.571-1.05,1.571-2.04" transform="translate(-0.27585 -0.08307)"/>
      <path class="cls-1" d="M112.00905,10.64874c-.398,1.031-.755,1.408-1.53,1.408a1.71529,1.71529,0,0,1-.602-.092v-.796a1.77563,1.77563,0,0,0,.51.123.74906.74906,0,0,0,.714-.48l.357-.897-2.091-5.244h.979l1.541,4.315h.02l1.48-4.315h.917Z" transform="translate(-0.27585 -0.08307)"/>
      <polygon class="cls-1" points="117.618 2.578 122.648 2.578 122.648 3.394 118.587 3.394 118.587 5.71 122.372 5.71 122.372 6.526 118.587 6.526 118.587 9.046 122.678 9.046 122.678 9.862 117.618 9.862 117.618 2.578"/>
      <path class="cls-1" d="M124.27905,5.43585h-.888v-.765h.888v-.786c0-.856.51-1.306,1.459-1.306a2.13121,2.13121,0,0,1,.561.082v.755a1.62751,1.62751,0,0,0-.49-.071c-.418,0-.663.132-.663.59094v.735h1.02v.765h-1.02v4.509h-.867Z" transform="translate(-0.27585 -0.08307)"/>
      <path class="cls-1" d="M127.053,5.43585h-.888v-.765h.888v-.786c0-.856.51-1.306,1.459-1.306a2.13133,2.13133,0,0,1,.561.082v.755a1.623,1.623,0,0,0-.49-.071c-.418,0-.663.132-.663.59094v.735h1.02v.765h-1.02v4.509h-.867Z" transform="translate(-0.27585 -0.08307)"/>
      <path class="cls-1" d="M130.57186,3.72205h-.867v-1.061h.867Zm-.867.949h.867v5.274h-.867Z" transform="translate(-0.27585 -0.08307)"/>
      <path class="cls-1" d="M135.43746,6.36426a1.22785,1.22785,0,0,0-1.306-1.051c-1.255,0-1.642.99-1.642,2.061,0,.969.439,1.928,1.54,1.928a1.36383,1.36383,0,0,0,1.449-1.285h.887a2.191,2.191,0,0,1-2.326,2.05,2.39848,2.39848,0,0,1-2.468-2.693c0-1.581.816-2.826,2.489-2.826a2.02238,2.02238,0,0,1,2.275,1.816Z" transform="translate(-0.27585 -0.08307)"/>
      <path class="cls-1" d="M138.19084,3.72205h-.867v-1.061h.867Zm-.867.949h.867v5.274h-.867Z" transform="translate(-0.27585 -0.08307)"/>
      <path class="cls-1" d="M143.974,8.27185a2.126,2.126,0,0,1-2.254,1.796c-1.683,0-2.479-1.163-2.53-2.775a2.53819,2.53819,0,0,1,2.479-2.744c1.866,0,2.438,1.744,2.387,3.019h-3.948a1.55409,1.55409,0,0,0,1.642,1.735,1.2698,1.2698,0,0,0,1.367-1.03095Zm-.836-1.46905a1.51748,1.51748,0,0,0-1.52-1.489,1.50174,1.50174,0,0,0-1.51,1.489Z" transform="translate(-0.27585 -0.08307)"/>
      <path class="cls-1" d="M144.89156,4.6709h.816V5.507h.02a1.83842,1.83842,0,0,1,1.714-.95905c1.388,0,1.816.796,1.816,1.929V9.945h-.867V6.3739a.994.994,0,0,0-1.071-1.061,1.48293,1.48293,0,0,0-1.561,1.653V9.945h-.867Z" transform="translate(-0.27585 -0.08307)"/>
      <path class="cls-1" d="M154.082,6.36426a1.22785,1.22785,0,0,0-1.306-1.051c-1.255,0-1.643.99-1.643,2.061,0,.969.439,1.928,1.541,1.928a1.36442,1.36442,0,0,0,1.449-1.285h.887a2.19216,2.19216,0,0,1-2.326,2.05,2.39848,2.39848,0,0,1-2.468-2.693c0-1.581.815-2.826,2.488-2.826a2.02277,2.02277,0,0,1,2.276,1.816Z" transform="translate(-0.27585 -0.08307)"/>
      <path class="cls-1" d="M157.98766,10.64874c-.398,1.031-.755,1.408-1.53,1.408a1.71532,1.71532,0,0,1-.602-.092v-.796a1.7757,1.7757,0,0,0,.51.123.74906.74906,0,0,0,.714-.48l.357-.897-2.091-5.244h.979l1.541,4.315h.02l1.48-4.315h.917Z" transform="translate(-0.27585 -0.08307)"/>
      <path class="cls-1" d="M167.74974,9.03754a2.44218,2.44218,0,0,1-2.061,1.03,1.989,1.989,0,0,1-2.275-1.99c0-1.142.775-1.713,1.703-2.203a2.80459,2.80459,0,0,1-.805-1.714,1.50965,1.50965,0,0,1,1.642-1.5,1.57639,1.57639,0,0,1,1.765,1.49,2.29813,2.29813,0,0,1-1.367,1.887l1.316,1.602a3.87005,3.87005,0,0,0,.235-1.133h.826a4.12093,4.12093,0,0,1-.49,1.796l1.418,1.643h-1.132Zm-2.153-2.612c-.683.388-1.265.775-1.265,1.642a1.32149,1.32149,0,0,0,1.387,1.235,1.83451,1.83451,0,0,0,1.551-.867Zm1.255-2.22406a.83949.83949,0,0,0-1.674,0,2.40564,2.40564,0,0,0,.705,1.265c.418-.265.969-.653.969-1.265" transform="translate(-0.27585 -0.08307)"/>
      <path class="cls-1" d="M84.04184,14.89966h3.428c1.367,0,2.214.745,2.214,1.908a1.74762,1.74762,0,0,1-1.265,1.847v.02c.846.163,1.02.786,1.091,1.5a3.724,3.724,0,0,0,.429,2.009h-1.082c-.275-.295-.122-1.081-.265-1.795-.102-.714-.275-1.316-1.214-1.316h-2.367v3.111h-.969Zm2.989,3.357c.908,0,1.684-.235,1.684-1.296a1.15225,1.15225,0,0,0-1.296-1.244h-2.408v2.54Z" transform="translate(-0.27585 -0.08307)"/>
      <path class="cls-1" d="M95.27274,20.51105a2.127,2.127,0,0,1-2.255,1.796c-1.683,0-2.479-1.163-2.53-2.775a2.53876,2.53876,0,0,1,2.479-2.744c1.867,0,2.438,1.744,2.387,3.019h-3.948a1.55407,1.55407,0,0,0,1.642,1.735,1.27148,1.27148,0,0,0,1.368-1.03094Zm-.837-1.46906a1.51747,1.51747,0,0,0-1.52-1.48895,1.50173,1.50173,0,0,0-1.51,1.48895Z" transform="translate(-0.27585 -0.08307)"/>
      <path class="cls-1" d="M96.18935,16.9101h.816v.83606h.02a1.83842,1.83842,0,0,1,1.714-.95905c1.388,0,1.816.796,1.816,1.929v3.468h-.867v-3.571a.99327.99327,0,0,0-1.071-1.06,1.48218,1.48218,0,0,0-1.561,1.652v2.979h-.867Z" transform="translate(-0.27585 -0.08307)"/>
      <path class="cls-1" d="M106.29854,20.51105a2.127,2.127,0,0,1-2.255,1.796c-1.683,0-2.479-1.163-2.53-2.775a2.53876,2.53876,0,0,1,2.479-2.744c1.867,0,2.438,1.744,2.387,3.019h-3.948a1.55407,1.55407,0,0,0,1.642,1.735,1.27148,1.27148,0,0,0,1.368-1.03094Zm-.837-1.46906a1.51747,1.51747,0,0,0-1.52-1.48895,1.50171,1.50171,0,0,0-1.51,1.48895Z" transform="translate(-0.27585 -0.08307)"/>
      <polygon class="cls-1" points="112.163 22.101 111.244 22.101 110.173 17.908 110.152 17.908 109.091 22.101 108.154 22.101 106.46 16.827 107.419 16.827 108.613 21.142 108.632 21.142 109.693 16.827 110.643 16.827 111.743 21.142 111.764 21.142 112.947 16.827 113.846 16.827 112.163 22.101"/>
      <path class="cls-1" d="M119.55763,22.16443a1.179,1.179,0,0,1-.623.142c-.449,0-.734-.244-.734-.816a2.3413,2.3413,0,0,1-1.857.816c-.959,0-1.744-.428-1.744-1.479,0-1.194.887-1.449,1.785-1.62194.959-.183,1.775-.122,1.775-.776,0-.754-.622-.877-1.173-.877-.734,0-1.275.225-1.316,1h-.868c.052-1.306,1.062-1.765,2.235-1.765.949,0,1.979.215,1.979,1.449v2.713c0,.408,0,.592.275.592a.74051.74051,0,0,0,.266-.051Zm-1.408-2.704a4.46637,4.46637,0,0,1-1.571.35705c-.572.102-1.061.306-1.061.949,0,.571.489.775,1.02.775,1.142,0,1.612-.71405,1.612-1.19305Z" transform="translate(-0.27585 -0.08307)"/>
      <path class="cls-1" d="M120.33115,14.90057h.868v2.723h.02a1.77564,1.77564,0,0,1,1.684-.836c1.622,0,2.427,1.285,2.427,2.775,0,1.489-.795,2.744-2.407,2.744a2.02074,2.02074,0,0,1-1.704-.826h-.02v.704h-.868Zm2.449,2.652c-1.163,0-1.612,1-1.612,1.989,0,1.041.469,2,1.663,2,1.183,0,1.581-1.01,1.581-2.04,0-.99-.51-1.949-1.632-1.949" transform="translate(-0.27585 -0.08307)"/>
      <rect class="cls-1" x="126.063" y="14.81702" width="0.867" height="7.284"/>
      <path class="cls-1" d="M132.99,20.51105a2.127,2.127,0,0,1-2.255,1.796c-1.683,0-2.479-1.163-2.53-2.775a2.53876,2.53876,0,0,1,2.479-2.744c1.867,0,2.438,1.744,2.387,3.019h-3.948a1.55408,1.55408,0,0,0,1.642,1.735,1.27148,1.27148,0,0,0,1.368-1.03094Zm-.837-1.46906a1.51747,1.51747,0,0,0-1.52-1.48895,1.50173,1.50173,0,0,0-1.51,1.48895Z" transform="translate(-0.27585 -0.08307)"/>
      <polygon class="cls-1" points="136.548 14.817 141.578 14.817 141.578 15.633 137.517 15.633 137.517 17.949 141.302 17.949 141.302 18.765 137.517 18.765 137.517 21.285 141.608 21.285 141.608 22.101 136.548 22.101 136.548 14.817"/>
      <path class="cls-1" d="M142.85135,16.9101h.816v.83606h.021a1.83694,1.83694,0,0,1,1.713-.95905c1.388,0,1.816.796,1.816,1.929v3.468h-.867v-3.571a.99327.99327,0,0,0-1.071-1.06,1.48266,1.48266,0,0,0-1.561,1.652v2.979h-.867Z" transform="translate(-0.27585 -0.08307)"/>
      <path class="cls-1" d="M152.96015,20.51105a2.126,2.126,0,0,1-2.254,1.796c-1.683,0-2.479-1.163-2.53-2.775a2.53818,2.53818,0,0,1,2.479-2.744c1.866,0,2.438,1.744,2.387,3.019h-3.948a1.55408,1.55408,0,0,0,1.642,1.735,1.26979,1.26979,0,0,0,1.367-1.03094Zm-.836-1.46906a1.51747,1.51747,0,0,0-1.52-1.48895,1.50173,1.50173,0,0,0-1.51,1.48895Z" transform="translate(-0.27585 -0.08307)"/>
      <path class="cls-1" d="M153.84685,16.9101h.816v1.11206h.02a1.91884,1.91884,0,0,1,1.939-1.23505v.919c-1.398,0-1.908.795-1.908,2.132v2.346h-.867Z" transform="translate(-0.27585 -0.08307)"/>
      <path class="cls-1" d="M161.47695,21.735c0,1.714-.786,2.592-2.449,2.592-.989,0-2.132-.398-2.183-1.551h.867c.041.632.796.857,1.368.857,1.132,0,1.581-.816,1.581-2v-.347h-.021a1.75664,1.75664,0,0,1-1.642.96,2.38725,2.38725,0,0,1-2.357-2.673c0-1.24506.612-2.786,2.439-2.786a1.72035,1.72035,0,0,1,1.57.878h.011V16.91h.816Zm-.857-2.295c0-.928-.408-1.887-1.5-1.887-1.112,0-1.561.908-1.561,1.917,0,.949.347,2.01,1.49,2.01,1.142,0,1.571-1.05,1.571-2.04" transform="translate(-0.27585 -0.08307)"/>
      <path class="cls-1" d="M164.79085,22.88794c-.398,1.031-.755,1.408-1.53,1.408a1.71529,1.71529,0,0,1-.602-.092v-.796a1.77555,1.77555,0,0,0,.51.123.74906.74906,0,0,0,.714-.48l.357-.897-2.091-5.244h.979l1.541,4.315h.02l1.48-4.315h.917Z" transform="translate(-0.27585 -0.08307)"/>
    </g>
  </g>
</svg>
